<?xml version="1.0" encoding="utf-8" standalone="no"?>
<!DOCTYPE svg PUBLIC "-//W3C//DTD SVG 1.1//EN"
  "http://www.w3.org/Graphics/SVG/1.1/DTD/svg11.dtd">
<svg xmlns:xlink="http://www.w3.org/1999/xlink" width="1097.8775pt" height="682.656563pt" viewBox="0 0 1097.8775 682.656563" xmlns="http://www.w3.org/2000/svg" version="1.1">
 <metadata>
  <rdf:RDF xmlns:dc="http://purl.org/dc/elements/1.1/" xmlns:cc="http://creativecommons.org/ns#" xmlns:rdf="http://www.w3.org/1999/02/22-rdf-syntax-ns#">
   <cc:Work>
    <dc:type rdf:resource="http://purl.org/dc/dcmitype/StillImage"/>
    <dc:date>2026-01-09T08:35:07.234750</dc:date>
    <dc:format>image/svg+xml</dc:format>
    <dc:creator>
     <cc:Agent>
      <dc:title>Matplotlib v3.10.8, https://matplotlib.org/</dc:title>
     </cc:Agent>
    </dc:creator>
   </cc:Work>
  </rdf:RDF>
 </metadata>
 <defs>
  <style type="text/css">*{stroke-linejoin: round; stroke-linecap: butt}</style>
 </defs>
 <g id="figure_1">
  <g id="patch_1">
   <path d="M 0 682.656563 
L 1097.8775 682.656563 
L 1097.8775 0 
L 0 0 
z
" style="fill: #ffffff"/>
  </g>
  <g id="axes_1">
   <g id="patch_2">
    <path d="M 72.325 631.628438 
L 1090.6775 631.628438 
L 1090.6775 45.160938 
L 72.325 45.160938 
z
" style="fill: #ffffff"/>
   </g>
   <g id="FillBetweenPolyCollection_1">
    <path d="M 72.325 631.628438 
L 72.325 631.628438 
L 73.437042 631.628438 
L 74.549084 631.628438 
L 75.661126 631.628438 
L 76.773168 631.628438 
L 77.88521 631.628438 
L 78.997252 631.628438 
L 80.109294 631.628438 
L 81.221336 631.628438 
L 82.333378 631.628438 
L 83.44542 631.628438 
L 84.557462 631.628438 
L 85.669505 631.628438 
L 86.781547 631.628438 
L 87.893589 631.628438 
L 89.005631 631.628438 
L 90.117673 631.628438 
L 91.229715 631.628438 
L 92.341757 631.628438 
L 93.453799 631.628438 
L 94.565841 631.628438 
L 95.677883 631.628438 
L 96.789925 631.628438 
L 97.901967 631.628438 
L 99.014009 631.628438 
L 100.126051 631.628438 
L 101.238093 631.628438 
L 102.350135 631.628438 
L 103.462177 631.628438 
L 104.574219 631.628438 
L 105.686261 631.628438 
L 106.798303 631.628438 
L 107.910345 631.628438 
L 109.022387 631.628438 
L 110.134429 631.628438 
L 111.246471 631.628438 
L 112.358514 631.628438 
L 113.470556 631.628438 
L 114.582598 631.628438 
L 115.69464 631.628438 
L 116.806682 631.628438 
L 117.918724 631.628438 
L 119.030766 631.628438 
L 120.142808 631.628438 
L 121.25485 631.628438 
L 122.366892 631.628438 
L 123.478934 631.628438 
L 124.590976 631.628438 
L 125.703018 631.628438 
L 126.81506 631.628438 
L 127.927102 631.628438 
L 129.039144 631.628438 
L 130.151186 631.628438 
L 131.263228 631.628438 
L 132.37527 631.628438 
L 133.487312 631.628438 
L 134.599354 631.628438 
L 135.711396 631.628438 
L 136.823438 631.628438 
L 137.93548 631.628438 
L 139.047523 631.628438 
L 140.159565 631.628438 
L 141.271607 631.628438 
L 142.383649 631.628438 
L 143.495691 631.628438 
L 144.607733 631.628438 
L 145.719775 631.628438 
L 146.831817 631.628438 
L 147.943859 631.628438 
L 149.055901 631.628438 
L 150.167943 631.628438 
L 151.279985 631.628438 
L 152.392027 631.628438 
L 153.504069 631.628438 
L 154.616111 631.628438 
L 155.728153 631.628438 
L 156.840195 631.628438 
L 157.952237 631.628438 
L 159.064279 631.628438 
L 160.176321 631.628438 
L 161.288363 631.628438 
L 162.400405 631.628438 
L 163.512447 631.628438 
L 164.624489 631.628438 
L 165.736532 631.628438 
L 166.848574 631.628438 
L 167.960616 631.628438 
L 169.072658 631.628438 
L 170.1847 631.628438 
L 171.296742 631.628438 
L 172.408784 631.628438 
L 173.520826 631.628438 
L 174.632868 631.628438 
L 175.74491 631.628438 
L 176.856952 631.628438 
L 177.968994 631.628438 
L 179.081036 631.628438 
L 180.193078 631.628438 
L 181.30512 631.628438 
L 182.417162 631.628438 
L 183.529204 631.628438 
L 184.641246 631.628438 
L 185.753288 631.628438 
L 186.86533 631.628438 
L 187.977372 631.628438 
L 189.089414 631.628438 
L 190.201456 631.628438 
L 191.313498 631.628438 
L 192.425541 631.628438 
L 193.537583 631.628438 
L 194.649625 631.628438 
L 195.761667 631.628438 
L 196.873709 631.628438 
L 197.985751 631.628438 
L 199.097793 631.628438 
L 200.209835 631.628438 
L 201.321877 631.628438 
L 202.433919 631.628438 
L 203.545961 631.628438 
L 204.658003 631.628438 
L 205.770045 631.628438 
L 206.882087 631.628438 
L 207.994129 631.628438 
L 209.106171 631.628438 
L 210.218213 631.628438 
L 211.330255 631.628438 
L 212.442297 631.628438 
L 213.554339 631.628438 
L 214.666381 631.628438 
L 215.778423 631.628438 
L 216.890465 631.628438 
L 218.002508 631.628438 
L 219.11455 631.628438 
L 220.226592 631.628438 
L 221.338634 631.628438 
L 222.450676 631.628438 
L 223.562718 631.628438 
L 224.67476 631.628438 
L 225.786802 631.628438 
L 226.898844 631.628438 
L 228.010886 631.628438 
L 229.122928 631.628438 
L 230.23497 631.628438 
L 231.347012 631.628438 
L 232.459054 631.628438 
L 233.571096 631.628438 
L 234.683138 631.628438 
L 235.79518 631.628438 
L 236.907222 631.628438 
L 238.019264 631.628438 
L 239.131306 631.628438 
L 240.243348 631.628438 
L 241.35539 631.628438 
L 242.467432 631.628438 
L 243.579474 631.628438 
L 244.691517 631.628438 
L 245.803559 631.628438 
L 246.915601 631.628438 
L 248.027643 631.628438 
L 249.139685 631.628438 
L 250.251727 631.628438 
L 251.363769 631.628438 
L 252.475811 631.628438 
L 253.587853 631.628438 
L 254.699895 631.628438 
L 255.811937 631.628438 
L 256.923979 631.628438 
L 258.036021 631.628438 
L 259.148063 631.628438 
L 260.260105 631.628438 
L 261.372147 631.628438 
L 262.484189 631.628438 
L 263.596231 631.628438 
L 264.708273 631.628438 
L 265.820315 631.628438 
L 266.932357 631.628438 
L 268.044399 631.628438 
L 269.156441 631.628438 
L 270.268483 631.628438 
L 271.380526 631.628438 
L 272.492568 631.628438 
L 273.60461 631.628438 
L 274.716652 631.628438 
L 275.828694 631.628438 
L 276.940736 631.628438 
L 278.052778 631.628438 
L 279.16482 631.628438 
L 280.276862 631.628438 
L 281.388904 631.628438 
L 282.500946 631.628438 
L 283.612988 631.628438 
L 284.72503 631.628438 
L 285.837072 631.628438 
L 286.949114 631.628438 
L 288.061156 631.628438 
L 289.173198 631.628438 
L 290.28524 631.628438 
L 291.397282 631.628438 
L 292.509324 631.628438 
L 293.621366 631.628438 
L 294.733408 631.628438 
L 295.84545 631.628438 
L 296.957492 631.628438 
L 298.069535 631.628438 
L 299.181577 631.628438 
L 300.293619 631.628438 
L 301.405661 631.628438 
L 302.517703 631.628438 
L 303.629745 631.628438 
L 304.741787 631.628438 
L 305.853829 631.628438 
L 306.965871 631.628438 
L 308.077913 631.628438 
L 309.189955 631.628438 
L 310.301997 631.628438 
L 311.414039 631.628438 
L 312.526081 631.628438 
L 313.638123 631.628438 
L 314.750165 631.628438 
L 315.862207 631.628438 
L 316.974249 631.628438 
L 318.086291 631.628438 
L 319.198333 631.628438 
L 320.310375 631.628438 
L 321.422417 631.628438 
L 322.534459 631.628438 
L 323.646502 631.628438 
L 324.758544 631.628438 
L 325.870586 631.628438 
L 326.982628 631.628438 
L 328.09467 631.628438 
L 329.206712 631.628438 
L 330.318754 631.628438 
L 331.430796 631.628438 
L 332.542838 631.628438 
L 333.65488 631.628438 
L 334.766922 631.628438 
L 335.878964 631.628438 
L 336.991006 631.628438 
L 338.103048 631.628438 
L 339.21509 631.628438 
L 340.327132 631.628438 
L 341.439174 631.628438 
L 342.551216 631.628438 
L 343.663258 631.628438 
L 344.7753 631.628438 
L 345.887342 631.628438 
L 346.999384 631.628438 
L 348.111426 631.628438 
L 349.223468 631.628438 
L 350.335511 631.628438 
L 351.447553 631.628438 
L 352.559595 631.628438 
L 353.671637 631.628438 
L 354.783679 631.628438 
L 355.895721 631.628438 
L 357.007763 631.628438 
L 358.119805 631.628438 
L 359.231847 631.628438 
L 360.343889 631.628438 
L 361.455931 631.628438 
L 362.567973 631.628438 
L 363.680015 631.628438 
L 364.792057 631.628438 
L 365.904099 631.628438 
L 367.016141 631.628438 
L 368.128183 631.628438 
L 369.240225 631.628438 
L 370.352267 631.628438 
L 371.464309 631.628438 
L 372.576351 631.628438 
L 373.688393 631.628438 
L 374.800435 631.628438 
L 375.912477 631.628438 
L 377.02452 631.628438 
L 378.136562 631.628438 
L 379.248604 631.628438 
L 380.360646 631.628438 
L 381.472688 631.628438 
L 382.58473 631.628438 
L 383.696772 631.628438 
L 384.808814 631.628438 
L 385.920856 631.628438 
L 387.032898 631.628438 
L 388.14494 631.628438 
L 389.256982 631.628438 
L 390.369024 631.628438 
L 391.481066 631.628438 
L 392.593108 631.628438 
L 393.70515 631.628438 
L 394.817192 631.628438 
L 395.929234 631.628438 
L 397.041276 631.628438 
L 398.153318 631.628438 
L 399.26536 631.628438 
L 400.377402 631.628438 
L 401.489444 631.628438 
L 402.601486 631.628438 
L 403.713529 631.628438 
L 404.825571 631.628438 
L 405.937613 631.628438 
L 407.049655 631.628438 
L 408.161697 631.628438 
L 409.273739 631.628438 
L 410.385781 631.628438 
L 411.497823 631.628438 
L 412.609865 631.628438 
L 413.721907 631.628438 
L 414.833949 631.628438 
L 415.945991 631.628438 
L 417.058033 631.628438 
L 418.170075 631.628438 
L 419.282117 631.628438 
L 420.394159 631.628438 
L 421.506201 631.628438 
L 422.618243 631.628438 
L 423.730285 631.628438 
L 424.842327 631.628438 
L 425.954369 631.628438 
L 427.066411 631.628438 
L 428.178453 631.628438 
L 429.290495 631.628438 
L 430.402538 631.628438 
L 431.51458 631.628438 
L 432.626622 631.628438 
L 433.738664 631.628438 
L 434.850706 631.628438 
L 435.962748 631.628438 
L 437.07479 631.628438 
L 438.186832 631.628438 
L 439.298874 631.628438 
L 440.410916 631.628438 
L 441.522958 631.628438 
L 442.635 631.628438 
L 443.747042 631.628438 
L 444.859084 631.628438 
L 445.971126 631.628438 
L 447.083168 631.628438 
L 448.19521 631.628438 
L 449.307252 631.628438 
L 450.419294 631.628438 
L 451.531336 631.628438 
L 452.643378 631.628438 
L 453.75542 631.628438 
L 454.867462 631.628438 
L 455.979505 631.628438 
L 457.091547 631.628438 
L 458.203589 631.628438 
L 459.315631 631.628438 
L 460.427673 631.628438 
L 461.539715 631.628438 
L 462.651757 631.628438 
L 463.763799 631.628438 
L 464.875841 631.628438 
L 465.987883 631.628438 
L 467.099925 631.628438 
L 468.211967 631.628438 
L 469.324009 631.628438 
L 470.436051 631.628438 
L 471.548093 631.628438 
L 472.660135 631.628438 
L 473.772177 631.628438 
L 474.884219 631.628438 
L 475.996261 631.628438 
L 477.108303 631.628438 
L 478.220345 631.628438 
L 479.332387 631.628438 
L 480.444429 631.628438 
L 481.556471 631.628438 
L 482.668514 631.628438 
L 483.780556 631.628438 
L 484.892598 631.628438 
L 486.00464 631.628438 
L 487.116682 631.628438 
L 488.228724 631.628438 
L 489.340766 631.628438 
L 490.452808 631.628438 
L 491.56485 631.628438 
L 492.676892 631.628438 
L 493.788934 631.628438 
L 494.900976 631.628438 
L 496.013018 631.628438 
L 497.12506 631.628438 
L 498.237102 631.628438 
L 499.349144 631.628438 
L 500.461186 631.628438 
L 501.573228 631.628438 
L 502.68527 631.628438 
L 503.797312 631.628438 
L 504.909354 631.628438 
L 506.021396 631.628438 
L 507.133438 631.628438 
L 508.24548 631.628438 
L 509.357523 631.628438 
L 510.469565 631.628438 
L 511.581607 631.628438 
L 512.693649 631.628438 
L 513.805691 631.628438 
L 514.917733 631.628438 
L 516.029775 631.628438 
L 517.141817 631.628438 
L 518.253859 631.628438 
L 519.365901 631.628438 
L 520.477943 631.628438 
L 521.589985 631.628438 
L 522.702027 631.628438 
L 523.814069 631.628438 
L 524.926111 631.628438 
L 526.038153 631.628438 
L 527.150195 631.628438 
L 528.262237 631.628438 
L 529.374279 631.628438 
L 530.486321 631.628438 
L 531.598363 631.628438 
L 532.710405 631.628438 
L 533.822447 631.628438 
L 534.934489 631.628438 
L 536.046532 631.628438 
L 537.158574 631.628438 
L 538.270616 631.628438 
L 539.382658 631.628438 
L 540.4947 631.628438 
L 541.606742 631.628438 
L 542.718784 631.628438 
L 543.830826 631.628438 
L 544.942868 631.628438 
L 546.05491 631.628438 
L 547.166952 631.628438 
L 548.278994 631.628438 
L 549.391036 631.628438 
L 550.503078 631.628438 
L 551.61512 631.628438 
L 552.727162 631.628438 
L 553.839204 631.628438 
L 554.951246 631.628438 
L 556.063288 631.628438 
L 557.17533 631.628438 
L 558.287372 631.628438 
L 559.399414 631.628438 
L 560.511456 631.628438 
L 561.623498 631.628438 
L 562.735541 631.628438 
L 563.847583 631.628438 
L 564.959625 631.628438 
L 566.071667 631.628438 
L 567.183709 631.628438 
L 568.295751 631.628438 
L 569.407793 631.628438 
L 570.519835 631.628438 
L 571.631877 631.628438 
L 572.743919 631.628438 
L 573.855961 631.628438 
L 574.968003 631.628438 
L 576.080045 631.628438 
L 577.192087 631.628438 
L 578.304129 631.628438 
L 579.416171 631.628438 
L 580.528213 631.628438 
L 581.640255 631.628438 
L 582.752297 631.628438 
L 583.864339 631.628438 
L 584.976381 631.628438 
L 586.088423 631.628438 
L 587.200465 631.628438 
L 588.312508 631.628438 
L 589.42455 631.628438 
L 590.536592 631.628438 
L 591.648634 631.628438 
L 592.760676 631.628438 
L 593.872718 631.628438 
L 594.98476 631.628438 
L 596.096802 631.628438 
L 597.208844 631.628438 
L 598.320886 631.628438 
L 599.432928 631.628438 
L 600.54497 631.628438 
L 601.657012 631.628438 
L 602.769054 631.628438 
L 603.881096 631.628438 
L 604.993138 631.628438 
L 606.10518 631.628438 
L 607.217222 631.628438 
L 608.329264 631.628438 
L 609.441306 631.628438 
L 610.553348 631.628438 
L 611.66539 631.628438 
L 612.777432 631.628438 
L 613.889474 631.628438 
L 615.001517 631.628438 
L 616.113559 631.628438 
L 617.225601 631.628438 
L 618.337643 631.628438 
L 619.449685 631.628438 
L 620.561727 631.628438 
L 621.673769 631.628438 
L 622.785811 631.628438 
L 623.897853 631.628438 
L 625.009895 631.628438 
L 626.121937 631.628438 
L 627.233979 631.628438 
L 628.346021 631.628438 
L 629.458063 631.628438 
L 630.570105 631.628438 
L 631.682147 631.628438 
L 632.794189 631.628438 
L 633.906231 631.628438 
L 635.018273 631.628438 
L 636.130315 631.628438 
L 637.242357 631.628438 
L 638.354399 631.628438 
L 639.466441 631.628438 
L 640.578483 631.628438 
L 641.690526 631.628438 
L 642.802568 631.628438 
L 643.91461 631.628438 
L 645.026652 631.628438 
L 646.138694 631.628438 
L 647.250736 631.628438 
L 648.362778 631.628438 
L 649.47482 631.628438 
L 650.586862 631.628438 
L 651.698904 631.628438 
L 652.810946 631.628438 
L 653.922988 631.628438 
L 655.03503 631.628438 
L 656.147072 631.628438 
L 657.259114 631.628438 
L 658.371156 631.628438 
L 659.483198 631.628438 
L 660.59524 631.628438 
L 661.707282 631.628438 
L 662.819324 631.628438 
L 663.931366 631.628438 
L 665.043408 631.628438 
L 666.15545 631.628438 
L 667.267492 631.628438 
L 668.379535 631.628438 
L 669.491577 631.628438 
L 670.603619 631.628438 
L 671.715661 631.628438 
L 672.827703 631.628438 
L 673.939745 631.628438 
L 675.051787 631.628438 
L 676.163829 631.628438 
L 677.275871 631.628438 
L 678.387913 631.628438 
L 679.499955 631.628438 
L 680.611997 631.628438 
L 681.724039 631.628438 
L 682.836081 631.628438 
L 683.948123 631.628438 
L 685.060165 631.628438 
L 686.172207 631.628438 
L 687.284249 631.628438 
L 688.396291 631.628438 
L 689.508333 631.628438 
L 690.620375 631.628438 
L 691.732417 631.628438 
L 692.844459 631.628438 
L 693.956502 631.628438 
L 695.068544 631.628438 
L 696.180586 631.628438 
L 697.292628 631.628438 
L 698.40467 631.628438 
L 699.516712 631.628438 
L 700.628754 631.628438 
L 701.740796 631.628438 
L 702.852838 631.628438 
L 703.96488 631.628438 
L 705.076922 631.628438 
L 706.188964 631.628438 
L 707.301006 631.628438 
L 708.413048 631.628438 
L 709.52509 631.628438 
L 710.637132 631.628438 
L 711.749174 631.628438 
L 712.861216 631.628438 
L 713.973258 631.628438 
L 715.0853 631.628438 
L 716.197342 631.628438 
L 717.309384 631.628438 
L 718.421426 631.628438 
L 719.533468 631.628438 
L 720.645511 631.628438 
L 721.757553 631.628438 
L 722.869595 631.628438 
L 723.981637 631.628438 
L 725.093679 631.628438 
L 726.205721 631.628438 
L 727.317763 631.628438 
L 728.429805 631.628438 
L 729.541847 631.628438 
L 730.653889 631.628438 
L 731.765931 631.628438 
L 732.877973 631.628438 
L 733.990015 631.628438 
L 735.102057 631.628438 
L 736.214099 631.628438 
L 737.326141 631.628438 
L 738.438183 631.628438 
L 739.550225 631.628438 
L 740.662267 631.628438 
L 741.774309 631.628438 
L 742.886351 631.628438 
L 743.998393 631.628438 
L 745.110435 631.628438 
L 746.222477 631.628438 
L 747.33452 631.628438 
L 748.446562 631.628438 
L 749.558604 631.628438 
L 750.670646 631.628438 
L 751.782688 631.628438 
L 752.89473 631.628438 
L 754.006772 631.628438 
L 755.118814 631.628438 
L 756.230856 631.628438 
L 757.342898 631.628438 
L 758.45494 631.628438 
L 759.566982 631.628438 
L 760.679024 631.628438 
L 761.791066 631.628438 
L 762.903108 631.628438 
L 764.01515 631.628438 
L 765.127192 631.628438 
L 766.239234 631.628438 
L 767.351276 631.628438 
L 768.463318 631.628438 
L 769.57536 631.628438 
L 770.687402 631.628438 
L 771.799444 631.628438 
L 772.911486 631.628438 
L 774.023529 631.628438 
L 775.135571 631.628438 
L 776.247613 631.628438 
L 777.359655 631.628438 
L 778.471697 631.628438 
L 779.583739 631.628438 
L 780.695781 631.628438 
L 781.807823 631.628438 
L 782.919865 631.628438 
L 784.031907 631.628438 
L 785.143949 631.628438 
L 786.255991 631.628438 
L 787.368033 631.628438 
L 788.480075 631.628438 
L 789.592117 631.628438 
L 790.704159 631.628438 
L 791.816201 631.628438 
L 792.928243 631.628438 
L 794.040285 631.628438 
L 795.152327 631.628438 
L 796.264369 631.628438 
L 797.376411 631.628438 
L 798.488453 631.628438 
L 799.600495 631.628438 
L 800.712538 631.628438 
L 801.82458 631.628438 
L 802.936622 631.628438 
L 804.048664 631.628438 
L 805.160706 631.628438 
L 806.272748 631.628438 
L 807.38479 631.628438 
L 808.496832 631.628438 
L 809.608874 631.628438 
L 810.720916 631.628438 
L 811.832958 631.628438 
L 812.945 631.628438 
L 814.057042 631.628438 
L 815.169084 631.628438 
L 816.281126 631.628438 
L 817.393168 631.628438 
L 818.50521 631.628438 
L 819.617252 631.628438 
L 820.729294 631.628438 
L 821.841336 631.628438 
L 822.953378 631.628438 
L 824.06542 631.628438 
L 825.177462 631.628438 
L 826.289505 631.628438 
L 827.401547 631.628438 
L 828.513589 631.628438 
L 829.625631 631.628438 
L 830.737673 631.628438 
L 831.849715 631.628438 
L 832.961757 631.628438 
L 834.073799 631.628438 
L 835.185841 631.628438 
L 836.297883 631.628438 
L 837.409925 631.628438 
L 838.521967 631.628438 
L 839.634009 631.628438 
L 840.746051 631.628438 
L 841.858093 631.628438 
L 842.970135 631.628438 
L 844.082177 631.628438 
L 845.194219 631.628438 
L 846.306261 631.628438 
L 847.418303 631.628438 
L 848.530345 631.628438 
L 849.642387 631.628438 
L 850.754429 631.628438 
L 851.866471 631.628438 
L 852.978514 631.628438 
L 854.090556 631.628438 
L 855.202598 631.628438 
L 856.31464 631.628438 
L 857.426682 631.628438 
L 858.538724 631.628438 
L 859.650766 631.628438 
L 860.762808 631.628438 
L 861.87485 631.628438 
L 862.986892 631.628438 
L 864.098934 631.628438 
L 865.210976 631.628438 
L 866.323018 631.628438 
L 867.43506 631.628438 
L 868.547102 631.628438 
L 869.659144 631.628438 
L 870.771186 631.628438 
L 871.883228 631.628438 
L 872.99527 631.628438 
L 874.107312 631.628438 
L 875.219354 631.628438 
L 876.331396 631.628438 
L 877.443438 631.628438 
L 878.55548 631.628438 
L 879.667523 631.628438 
L 880.779565 631.628438 
L 881.891607 631.628438 
L 883.003649 631.628438 
L 884.115691 631.628438 
L 885.227733 631.628438 
L 886.339775 631.628438 
L 887.451817 631.628438 
L 888.563859 631.628438 
L 889.675901 631.628438 
L 890.787943 631.628438 
L 891.899985 631.628438 
L 893.012027 631.628438 
L 894.124069 631.628438 
L 895.236111 631.628438 
L 896.348153 631.628438 
L 897.460195 631.628438 
L 898.572237 631.628438 
L 899.684279 631.628438 
L 900.796321 631.628438 
L 901.908363 631.628438 
L 903.020405 631.628438 
L 904.132447 631.628438 
L 905.244489 631.628438 
L 906.356532 631.628438 
L 907.468574 631.628438 
L 908.580616 631.628438 
L 909.692658 631.628438 
L 910.8047 631.628438 
L 911.916742 631.628438 
L 913.028784 631.628438 
L 914.140826 631.628438 
L 915.252868 631.628438 
L 916.36491 631.628438 
L 917.476952 631.628438 
L 918.588994 631.628438 
L 919.701036 631.628438 
L 920.813078 631.628438 
L 921.92512 631.628438 
L 923.037162 631.628438 
L 924.149204 631.628438 
L 925.261246 631.628438 
L 926.373288 631.628438 
L 927.48533 631.628438 
L 928.597372 631.628438 
L 929.709414 631.628438 
L 930.821456 631.628438 
L 931.933498 631.628438 
L 933.045541 631.628438 
L 934.157583 631.628438 
L 935.269625 631.628438 
L 936.381667 631.628438 
L 937.493709 631.628438 
L 938.605751 631.628438 
L 939.717793 631.628438 
L 940.829835 631.628438 
L 941.941877 631.628438 
L 943.053919 631.628438 
L 944.165961 631.628438 
L 945.278003 631.628438 
L 946.390045 631.628438 
L 947.502087 631.628438 
L 948.614129 631.628438 
L 949.726171 631.628438 
L 950.838213 631.628438 
L 951.950255 631.628438 
L 953.062297 631.628438 
L 954.174339 631.628438 
L 955.286381 631.628438 
L 956.398423 631.628438 
L 957.510465 631.628438 
L 958.622508 631.628438 
L 959.73455 631.628438 
L 960.846592 631.628438 
L 961.958634 631.628438 
L 963.070676 631.628438 
L 964.182718 631.628438 
L 965.29476 631.628438 
L 966.406802 631.628438 
L 967.518844 631.628438 
L 968.630886 631.628438 
L 969.742928 631.628438 
L 970.85497 631.628438 
L 971.967012 631.628438 
L 973.079054 631.628438 
L 974.191096 631.628438 
L 975.303138 631.628438 
L 976.41518 631.628438 
L 977.527222 631.628438 
L 978.639264 631.628438 
L 979.751306 631.628438 
L 980.863348 631.628438 
L 981.97539 631.628438 
L 983.087432 631.628438 
L 984.199474 631.628438 
L 985.311517 631.628438 
L 986.423559 631.628438 
L 987.535601 631.628438 
L 988.647643 631.628438 
L 989.759685 631.628438 
L 990.871727 631.628438 
L 991.983769 631.628438 
L 993.095811 631.628438 
L 994.207853 631.628438 
L 995.319895 631.628438 
L 996.431937 631.628438 
L 997.543979 631.628438 
L 998.656021 631.628438 
L 999.768063 631.628438 
L 1000.880105 631.628438 
L 1001.992147 631.628438 
L 1003.104189 631.628438 
L 1004.216231 631.628438 
L 1005.328273 631.628438 
L 1006.440315 631.628438 
L 1007.552357 631.628438 
L 1008.664399 631.628438 
L 1009.776441 631.628438 
L 1010.888483 631.628438 
L 1012.000526 631.628438 
L 1013.112568 631.628438 
L 1014.22461 631.628438 
L 1015.336652 631.628438 
L 1016.448694 631.628438 
L 1017.560736 631.628438 
L 1018.672778 631.628438 
L 1019.78482 631.628438 
L 1020.896862 631.628438 
L 1022.008904 631.628438 
L 1023.120946 631.628438 
L 1024.232988 631.628438 
L 1025.34503 631.628438 
L 1026.457072 631.628438 
L 1027.569114 631.628438 
L 1028.681156 631.628438 
L 1029.793198 631.628438 
L 1030.90524 631.628438 
L 1032.017282 631.628438 
L 1033.129324 631.628438 
L 1034.241366 631.628438 
L 1035.353408 631.628438 
L 1036.46545 631.628438 
L 1037.577492 631.628438 
L 1038.689535 631.628438 
L 1039.801577 631.628438 
L 1040.913619 631.628438 
L 1042.025661 631.628438 
L 1043.137703 631.628438 
L 1044.249745 631.628438 
L 1045.361787 631.628438 
L 1046.473829 631.628438 
L 1047.585871 631.628438 
L 1048.697913 631.628438 
L 1049.809955 631.628438 
L 1050.921997 631.628438 
L 1052.034039 631.628438 
L 1053.146081 631.628438 
L 1054.258123 631.628438 
L 1055.370165 631.628438 
L 1056.482207 631.628438 
L 1057.594249 631.628438 
L 1058.706291 631.628438 
L 1059.818333 631.628438 
L 1060.930375 631.628438 
L 1062.042417 631.628438 
L 1063.154459 631.628438 
L 1064.266502 631.628438 
L 1065.378544 631.628438 
L 1066.490586 631.628438 
L 1067.602628 631.628438 
L 1068.71467 631.628438 
L 1069.826712 631.628438 
L 1070.938754 631.628438 
L 1072.050796 631.628438 
L 1073.162838 631.628438 
L 1074.27488 631.628438 
L 1075.386922 631.628438 
L 1076.498964 631.628438 
L 1077.611006 631.628438 
L 1078.723048 631.628438 
L 1079.83509 631.628438 
L 1080.947132 631.628438 
L 1082.059174 631.628438 
L 1083.171216 631.628438 
L 1084.283258 631.628438 
L 1085.3953 631.628438 
L 1086.507342 631.628438 
L 1087.619384 631.628438 
L 1088.731426 631.628438 
L 1089.843468 631.628438 
L 1090.955511 631.628438 
L 1092.067553 631.628438 
L 1093.179595 631.628438 
L 1094.291637 631.628438 
L 1095.403679 631.628438 
L 1096.515721 631.628438 
L 1097.627763 631.628438 
L 1098.739805 631.628438 
L 1099.851847 631.628438 
L 1100.963889 631.628438 
L 1102.075931 631.628438 
L 1103.187973 631.628438 
L 1104.300015 631.628438 
L 1105.412057 631.628438 
L 1106.524099 631.628438 
L 1107.636141 631.628438 
L 1108.748183 631.628438 
L 1109.860225 631.628438 
L 1110.972267 631.628438 
L 1112.084309 631.628438 
L 1113.196351 631.628438 
L 1114.308393 631.628438 
L 1115.420435 631.628438 
L 1116.532477 631.628438 
L 1117.64452 631.628438 
L 1118.756562 631.628438 
L 1119.868604 631.628438 
L 1120.980646 631.628438 
L 1122.092688 631.628438 
L 1123.20473 631.628438 
L 1124.316772 631.628438 
L 1125.428814 631.628438 
L 1126.540856 631.628438 
L 1127.652898 631.628438 
L 1128.76494 631.628438 
L 1129.876982 631.628438 
L 1130.989024 631.628438 
L 1132.101066 631.628438 
L 1133.213108 631.628438 
L 1134.32515 631.628438 
L 1135.437192 631.628438 
L 1136.549234 631.628438 
L 1137.661276 631.628438 
L 1138.773318 631.628438 
L 1139.88536 631.628438 
L 1140.997402 631.628438 
L 1142.109444 631.628438 
L 1143.221486 631.628438 
L 1144.333529 631.628438 
L 1145.445571 631.628438 
L 1146.557613 631.628438 
L 1147.669655 631.628438 
L 1148.781697 631.628438 
L 1149.893739 631.628438 
L 1151.005781 631.628438 
L 1152.117823 631.628438 
L 1153.229865 631.628438 
L 1154.341907 631.628438 
L 1155.453949 631.628438 
L 1156.565991 631.628438 
L 1157.678033 631.628438 
L 1158.790075 631.628438 
L 1159.902117 631.628438 
L 1161.014159 631.628438 
L 1162.126201 631.628438 
L 1163.238243 631.628438 
L 1164.350285 631.628438 
L 1165.462327 631.628438 
L 1166.574369 631.628438 
L 1167.686411 631.628438 
L 1168.798453 631.628438 
L 1169.910495 631.628438 
L 1171.022538 631.628438 
L 1172.13458 631.628438 
L 1173.246622 631.628438 
L 1174.358664 631.628438 
L 1175.470706 631.628438 
L 1176.582748 631.628438 
L 1177.69479 631.628438 
L 1178.806832 631.628438 
L 1179.918874 631.628438 
L 1181.030916 631.628438 
L 1182.142958 631.628438 
L 1183.255 631.628438 
L 1183.255 631.628438 
L 1183.255 631.628438 
L 1182.142958 631.628438 
L 1181.030916 631.628438 
L 1179.918874 631.628438 
L 1178.806832 631.628438 
L 1177.69479 631.628438 
L 1176.582748 631.628438 
L 1175.470706 631.628438 
L 1174.358664 631.628438 
L 1173.246622 631.628438 
L 1172.13458 631.628438 
L 1171.022538 631.628438 
L 1169.910495 631.628438 
L 1168.798453 631.628438 
L 1167.686411 631.628438 
L 1166.574369 631.628438 
L 1165.462327 631.628438 
L 1164.350285 631.628438 
L 1163.238243 631.628438 
L 1162.126201 631.628438 
L 1161.014159 631.628438 
L 1159.902117 631.628438 
L 1158.790075 631.628438 
L 1157.678033 631.628438 
L 1156.565991 631.628438 
L 1155.453949 631.628438 
L 1154.341907 631.628438 
L 1153.229865 631.628438 
L 1152.117823 631.628438 
L 1151.005781 631.628438 
L 1149.893739 631.628438 
L 1148.781697 631.628438 
L 1147.669655 631.628438 
L 1146.557613 631.628438 
L 1145.445571 631.628438 
L 1144.333529 631.628438 
L 1143.221486 631.628438 
L 1142.109444 631.628438 
L 1140.997402 631.628438 
L 1139.88536 631.628438 
L 1138.773318 631.628438 
L 1137.661276 631.628438 
L 1136.549234 631.628438 
L 1135.437192 631.628438 
L 1134.32515 631.628438 
L 1133.213108 631.628438 
L 1132.101066 631.628438 
L 1130.989024 631.628438 
L 1129.876982 631.628438 
L 1128.76494 631.628438 
L 1127.652898 631.628438 
L 1126.540856 631.628438 
L 1125.428814 631.628438 
L 1124.316772 631.628438 
L 1123.20473 631.628438 
L 1122.092688 631.628438 
L 1120.980646 631.628438 
L 1119.868604 631.628438 
L 1118.756562 631.628438 
L 1117.64452 631.628438 
L 1116.532477 631.628438 
L 1115.420435 631.628438 
L 1114.308393 631.628438 
L 1113.196351 631.628438 
L 1112.084309 631.628438 
L 1110.972267 631.628438 
L 1109.860225 631.628438 
L 1108.748183 631.628438 
L 1107.636141 631.628438 
L 1106.524099 631.628438 
L 1105.412057 631.628438 
L 1104.300015 631.628438 
L 1103.187973 631.628438 
L 1102.075931 631.628438 
L 1100.963889 631.628438 
L 1099.851847 631.628438 
L 1098.739805 631.628438 
L 1097.627763 631.628438 
L 1096.515721 631.628438 
L 1095.403679 631.628438 
L 1094.291637 631.628438 
L 1093.179595 631.628438 
L 1092.067553 631.628438 
L 1090.955511 631.628438 
L 1089.843468 631.628438 
L 1088.731426 631.628438 
L 1087.619384 631.628438 
L 1086.507342 631.628438 
L 1085.3953 631.628438 
L 1084.283258 631.628438 
L 1083.171216 631.628438 
L 1082.059174 631.628438 
L 1080.947132 631.628438 
L 1079.83509 631.628438 
L 1078.723048 631.628438 
L 1077.611006 631.628438 
L 1076.498964 631.628438 
L 1075.386922 631.628438 
L 1074.27488 631.628438 
L 1073.162838 631.628438 
L 1072.050796 631.628438 
L 1070.938754 631.628438 
L 1069.826712 631.628438 
L 1068.71467 631.628438 
L 1067.602628 631.628438 
L 1066.490586 631.628438 
L 1065.378544 631.628438 
L 1064.266502 631.628438 
L 1063.154459 631.628438 
L 1062.042417 631.628438 
L 1060.930375 631.628438 
L 1059.818333 631.628438 
L 1058.706291 631.628438 
L 1057.594249 631.628438 
L 1056.482207 631.628438 
L 1055.370165 631.628438 
L 1054.258123 631.628438 
L 1053.146081 631.628438 
L 1052.034039 631.628438 
L 1050.921997 631.628438 
L 1049.809955 631.628438 
L 1048.697913 631.628438 
L 1047.585871 631.628438 
L 1046.473829 631.628438 
L 1045.361787 631.628438 
L 1044.249745 631.628438 
L 1043.137703 631.628438 
L 1042.025661 631.628438 
L 1040.913619 631.628438 
L 1039.801577 631.628438 
L 1038.689535 631.628438 
L 1037.577492 631.628438 
L 1036.46545 631.628438 
L 1035.353408 631.628438 
L 1034.241366 631.628438 
L 1033.129324 631.628438 
L 1032.017282 631.628438 
L 1030.90524 631.628438 
L 1029.793198 631.628438 
L 1028.681156 631.628438 
L 1027.569114 631.628438 
L 1026.457072 631.628438 
L 1025.34503 631.628438 
L 1024.232988 631.628438 
L 1023.120946 631.628438 
L 1022.008904 631.628438 
L 1020.896862 631.628438 
L 1019.78482 631.628438 
L 1018.672778 631.628438 
L 1017.560736 631.628438 
L 1016.448694 631.628438 
L 1015.336652 631.628438 
L 1014.22461 631.628438 
L 1013.112568 631.628438 
L 1012.000526 631.628438 
L 1010.888483 631.628438 
L 1009.776441 631.628438 
L 1008.664399 631.628438 
L 1007.552357 631.628438 
L 1006.440315 631.628438 
L 1005.328273 631.628438 
L 1004.216231 631.628438 
L 1003.104189 631.628438 
L 1001.992147 631.628438 
L 1000.880105 631.628438 
L 999.768063 631.628438 
L 998.656021 631.628438 
L 997.543979 631.628438 
L 996.431937 631.628438 
L 995.319895 631.628438 
L 994.207853 631.628438 
L 993.095811 631.628438 
L 991.983769 631.628438 
L 990.871727 631.628438 
L 989.759685 631.628438 
L 988.647643 631.628438 
L 987.535601 631.628438 
L 986.423559 631.628438 
L 985.311517 631.628438 
L 984.199474 631.628438 
L 983.087432 631.628438 
L 981.97539 631.628438 
L 980.863348 631.628438 
L 979.751306 631.628438 
L 978.639264 631.628438 
L 977.527222 631.628438 
L 976.41518 631.628438 
L 975.303138 631.628438 
L 974.191096 631.628438 
L 973.079054 631.628438 
L 971.967012 631.628438 
L 970.85497 631.628438 
L 969.742928 631.628438 
L 968.630886 631.628438 
L 967.518844 631.628438 
L 966.406802 631.628438 
L 965.29476 631.628438 
L 964.182718 631.628438 
L 963.070676 631.628438 
L 961.958634 631.628438 
L 960.846592 631.628438 
L 959.73455 631.628438 
L 958.622508 631.628438 
L 957.510465 631.628438 
L 956.398423 631.628438 
L 955.286381 631.628438 
L 954.174339 631.628438 
L 953.062297 631.628438 
L 951.950255 631.628438 
L 950.838213 631.628438 
L 949.726171 631.628438 
L 948.614129 631.628438 
L 947.502087 631.628438 
L 946.390045 631.628438 
L 945.278003 631.628438 
L 944.165961 631.628438 
L 943.053919 631.628438 
L 941.941877 631.628438 
L 940.829835 631.628438 
L 939.717793 631.628438 
L 938.605751 631.628438 
L 937.493709 631.628438 
L 936.381667 631.628438 
L 935.269625 631.628438 
L 934.157583 631.628438 
L 933.045541 631.628438 
L 931.933498 631.628438 
L 930.821456 631.628438 
L 929.709414 631.628438 
L 928.597372 631.628438 
L 927.48533 631.628438 
L 926.373288 631.628438 
L 925.261246 631.628438 
L 924.149204 631.628438 
L 923.037162 631.628438 
L 921.92512 631.628438 
L 920.813078 631.628438 
L 919.701036 631.628438 
L 918.588994 631.628438 
L 917.476952 631.628438 
L 916.36491 631.628438 
L 915.252868 631.628438 
L 914.140826 631.628438 
L 913.028784 631.628438 
L 911.916742 631.628438 
L 910.8047 631.628438 
L 909.692658 631.628438 
L 908.580616 631.628438 
L 907.468574 631.628438 
L 906.356532 631.628438 
L 905.244489 631.628438 
L 904.132447 631.628438 
L 903.020405 631.628438 
L 901.908363 631.628438 
L 900.796321 631.628438 
L 899.684279 631.628438 
L 898.572237 631.628438 
L 897.460195 631.628438 
L 896.348153 631.628438 
L 895.236111 631.628438 
L 894.124069 631.628438 
L 893.012027 596.578842 
L 891.899985 596.505801 
L 890.787943 596.432704 
L 889.675901 596.35955 
L 888.563859 596.28634 
L 887.451817 596.213075 
L 886.339775 596.139753 
L 885.227733 596.066376 
L 884.115691 595.992944 
L 883.003649 595.919456 
L 881.891607 595.845914 
L 880.779565 595.772317 
L 879.667523 595.698666 
L 878.55548 595.62496 
L 877.443438 595.5512 
L 876.331396 595.477387 
L 875.219354 595.403519 
L 874.107312 595.329599 
L 872.99527 595.255625 
L 871.883228 595.181598 
L 870.771186 595.107519 
L 869.659144 595.033387 
L 868.547102 594.959203 
L 867.43506 594.884967 
L 866.323018 594.810679 
L 865.210976 594.736339 
L 864.098934 594.661948 
L 862.986892 594.587506 
L 861.87485 594.513012 
L 860.762808 594.438469 
L 859.650766 594.363874 
L 858.538724 594.28923 
L 857.426682 594.214535 
L 856.31464 594.139791 
L 855.202598 594.064997 
L 854.090556 593.990154 
L 852.978514 593.915262 
L 851.866471 593.840322 
L 850.754429 593.765332 
L 849.642387 593.690294 
L 848.530345 593.615209 
L 847.418303 593.540075 
L 846.306261 593.464894 
L 845.194219 593.389666 
L 844.082177 593.31439 
L 842.970135 593.239068 
L 841.858093 593.163699 
L 840.746051 593.088284 
L 839.634009 593.012823 
L 838.521967 592.937315 
L 837.409925 592.861763 
L 836.297883 592.786165 
L 835.185841 592.710522 
L 834.073799 592.634834 
L 832.961757 592.559102 
L 831.849715 592.483326 
L 830.737673 592.407505 
L 829.625631 592.331641 
L 828.513589 592.255733 
L 827.401547 592.179782 
L 826.289505 592.103789 
L 825.177462 592.027752 
L 824.06542 591.951673 
L 822.953378 591.875552 
L 821.841336 591.79939 
L 820.729294 591.723185 
L 819.617252 591.646939 
L 818.50521 591.570653 
L 817.393168 591.494325 
L 816.281126 591.417957 
L 815.169084 591.341549 
L 814.057042 591.265101 
L 812.945 591.188613 
L 811.832958 591.112086 
L 810.720916 591.03552 
L 809.608874 590.958915 
L 808.496832 590.882272 
L 807.38479 590.80559 
L 806.272748 590.728871 
L 805.160706 590.652114 
L 804.048664 590.575319 
L 802.936622 590.498487 
L 801.82458 590.421619 
L 800.712538 590.344714 
L 799.600495 590.267773 
L 798.488453 590.190796 
L 797.376411 590.113784 
L 796.264369 590.036736 
L 795.152327 589.959653 
L 794.040285 589.882536 
L 792.928243 589.805384 
L 791.816201 589.728198 
L 790.704159 589.650978 
L 789.592117 589.573724 
L 788.480075 589.496438 
L 787.368033 589.419118 
L 786.255991 589.341766 
L 785.143949 589.264382 
L 784.031907 589.186966 
L 782.919865 589.109518 
L 781.807823 589.032039 
L 780.695781 588.954529 
L 779.583739 588.876988 
L 778.471697 588.799416 
L 777.359655 588.721815 
L 776.247613 588.644183 
L 775.135571 588.566523 
L 774.023529 588.488833 
L 772.911486 588.411114 
L 771.799444 588.333367 
L 770.687402 588.255591 
L 769.57536 588.177788 
L 768.463318 588.099957 
L 767.351276 588.022099 
L 766.239234 587.944214 
L 765.127192 587.866302 
L 764.01515 587.788364 
L 762.903108 587.7104 
L 761.791066 587.632411 
L 760.679024 587.554396 
L 759.566982 587.476357 
L 758.45494 587.398292 
L 757.342898 587.320204 
L 756.230856 587.242091 
L 755.118814 587.163955 
L 754.006772 587.085796 
L 752.89473 587.007613 
L 751.782688 586.929409 
L 750.670646 586.851181 
L 749.558604 586.772932 
L 748.446562 586.694661 
L 747.33452 586.616369 
L 746.222477 586.538056 
L 745.110435 586.459722 
L 743.998393 586.381369 
L 742.886351 586.302995 
L 741.774309 586.224601 
L 740.662267 586.146189 
L 739.550225 586.067757 
L 738.438183 585.989307 
L 737.326141 585.910839 
L 736.214099 585.832353 
L 735.102057 585.753849 
L 733.990015 585.675329 
L 732.877973 585.596791 
L 731.765931 585.518237 
L 730.653889 585.439667 
L 729.541847 585.361082 
L 728.429805 585.28248 
L 727.317763 585.203864 
L 726.205721 585.125233 
L 725.093679 585.046588 
L 723.981637 584.967929 
L 722.869595 584.889256 
L 721.757553 584.81057 
L 720.645511 584.73187 
L 719.533468 584.653159 
L 718.421426 584.574435 
L 717.309384 584.495699 
L 716.197342 584.416952 
L 715.0853 584.338194 
L 713.973258 584.259425 
L 712.861216 584.180645 
L 711.749174 584.101855 
L 710.637132 584.023056 
L 709.52509 583.944248 
L 708.413048 583.86543 
L 707.301006 583.786604 
L 706.188964 583.70777 
L 705.076922 583.628927 
L 703.96488 583.550078 
L 702.852838 583.471221 
L 701.740796 583.392357 
L 700.628754 583.313487 
L 699.516712 583.234611 
L 698.40467 583.155729 
L 697.292628 583.076842 
L 696.180586 582.99795 
L 695.068544 582.919053 
L 693.956502 582.840153 
L 692.844459 582.761248 
L 691.732417 582.68234 
L 690.620375 582.603429 
L 689.508333 582.524515 
L 688.396291 582.445599 
L 687.284249 582.36668 
L 686.172207 582.287761 
L 685.060165 582.20884 
L 683.948123 582.129918 
L 682.836081 582.050995 
L 681.724039 581.972073 
L 680.611997 581.89315 
L 679.499955 581.814229 
L 678.387913 581.735308 
L 677.275871 581.656389 
L 676.163829 581.577472 
L 675.051787 581.498556 
L 673.939745 581.419643 
L 672.827703 581.340733 
L 671.715661 581.261827 
L 670.603619 581.182924 
L 669.491577 581.104025 
L 668.379535 581.02513 
L 667.267492 580.94624 
L 666.15545 580.867355 
L 665.043408 580.788476 
L 663.931366 580.709603 
L 662.819324 580.630736 
L 661.707282 580.551875 
L 660.59524 580.473022 
L 659.483198 580.394176 
L 658.371156 580.315337 
L 657.259114 580.236507 
L 656.147072 580.157686 
L 655.03503 580.078873 
L 653.922988 580.000069 
L 652.810946 579.921276 
L 651.698904 579.842492 
L 650.586862 579.763719 
L 649.47482 579.684956 
L 648.362778 579.606205 
L 647.250736 579.527465 
L 646.138694 579.448737 
L 645.026652 579.370022 
L 643.91461 579.291319 
L 642.802568 579.212629 
L 641.690526 579.133952 
L 640.578483 579.05529 
L 639.466441 578.976641 
L 638.354399 578.898007 
L 637.242357 578.819388 
L 636.130315 578.740785 
L 635.018273 578.662197 
L 633.906231 578.583625 
L 632.794189 578.505069 
L 631.682147 578.42653 
L 630.570105 578.348009 
L 629.458063 578.269505 
L 628.346021 578.191019 
L 627.233979 578.112551 
L 626.121937 578.034102 
L 625.009895 577.955672 
L 623.897853 577.877261 
L 622.785811 577.798871 
L 621.673769 577.7205 
L 620.561727 577.64215 
L 619.449685 577.56382 
L 618.337643 577.485512 
L 617.225601 577.407226 
L 616.113559 577.328962 
L 615.001517 577.25072 
L 613.889474 577.1725 
L 612.777432 577.094304 
L 611.66539 577.016132 
L 610.553348 576.937983 
L 609.441306 576.859858 
L 608.329264 576.781758 
L 607.217222 576.703683 
L 606.10518 576.625633 
L 604.993138 576.547609 
L 603.881096 576.469611 
L 602.769054 576.39164 
L 601.657012 576.313695 
L 600.54497 576.235777 
L 599.432928 576.157886 
L 598.320886 576.080024 
L 597.208844 576.00219 
L 596.096802 575.924384 
L 594.98476 575.846607 
L 593.872718 575.768859 
L 592.760676 575.691141 
L 591.648634 575.613453 
L 590.536592 575.535796 
L 589.42455 575.458169 
L 588.312508 575.380573 
L 587.200465 575.303008 
L 586.088423 575.225475 
L 584.976381 575.147975 
L 583.864339 575.070506 
L 582.752297 574.993071 
L 581.640255 574.915668 
L 580.528213 574.838299 
L 579.416171 574.760964 
L 578.304129 574.683663 
L 577.192087 574.606397 
L 576.080045 574.529165 
L 574.968003 574.451968 
L 573.855961 574.374807 
L 572.743919 574.297682 
L 571.631877 574.220593 
L 570.519835 574.143541 
L 569.407793 574.066526 
L 568.295751 573.989547 
L 567.183709 573.912606 
L 566.071667 573.835703 
L 564.959625 573.758839 
L 563.847583 573.682012 
L 562.735541 573.605225 
L 561.623498 573.528477 
L 560.511456 573.451768 
L 559.399414 573.375099 
L 558.287372 573.298471 
L 557.17533 573.221882 
L 556.063288 573.145335 
L 554.951246 573.068828 
L 553.839204 572.992363 
L 552.727162 572.91594 
L 551.61512 572.839559 
L 550.503078 572.76322 
L 549.391036 572.686924 
L 548.278994 572.610671 
L 547.166952 572.534461 
L 546.05491 572.458294 
L 544.942868 572.382172 
L 543.830826 572.306094 
L 542.718784 572.23006 
L 541.606742 572.154071 
L 540.4947 572.078127 
L 539.382658 572.002229 
L 538.270616 571.926376 
L 537.158574 571.850569 
L 536.046532 571.774808 
L 534.934489 571.699095 
L 533.822447 571.623427 
L 532.710405 571.547808 
L 531.598363 571.472235 
L 530.486321 571.39671 
L 529.374279 571.321233 
L 528.262237 571.245805 
L 527.150195 571.170425 
L 526.038153 571.095094 
L 524.926111 571.019812 
L 523.814069 570.944579 
L 522.702027 570.869396 
L 521.589985 570.794263 
L 520.477943 570.71918 
L 519.365901 570.644147 
L 518.253859 570.569165 
L 517.141817 570.494234 
L 516.029775 570.419355 
L 514.917733 570.344527 
L 513.805691 570.26975 
L 512.693649 570.195026 
L 511.581607 570.120353 
L 510.469565 570.045734 
L 509.357523 569.971167 
L 508.24548 569.896653 
L 507.133438 569.822192 
L 506.021396 569.747785 
L 504.909354 569.673431 
L 503.797312 569.599131 
L 502.68527 569.524886 
L 501.573228 569.450695 
L 500.461186 569.376558 
L 499.349144 569.302477 
L 498.237102 569.22845 
L 497.12506 569.154479 
L 496.013018 569.080563 
L 494.900976 569.006703 
L 493.788934 568.932899 
L 492.676892 568.859152 
L 491.56485 568.78546 
L 490.452808 568.711825 
L 489.340766 568.638247 
L 488.228724 568.564726 
L 487.116682 568.491263 
L 486.00464 568.417856 
L 484.892598 568.344507 
L 483.780556 568.271217 
L 482.668514 568.197984 
L 481.556471 568.124809 
L 480.444429 568.051692 
L 479.332387 567.978635 
L 478.220345 567.905636 
L 477.108303 567.832695 
L 475.996261 567.759814 
L 474.884219 567.686993 
L 473.772177 567.61423 
L 472.660135 567.541528 
L 471.548093 567.468885 
L 470.436051 567.396302 
L 469.324009 567.323779 
L 468.211967 567.251317 
L 467.099925 567.178914 
L 465.987883 567.106573 
L 464.875841 567.034292 
L 463.763799 566.962072 
L 462.651757 566.889913 
L 461.539715 566.817816 
L 460.427673 566.745779 
L 459.315631 566.673805 
L 458.203589 566.601891 
L 457.091547 566.53004 
L 455.979505 566.45825 
L 454.867462 566.386522 
L 453.75542 566.314857 
L 452.643378 566.243253 
L 451.531336 566.171712 
L 450.419294 566.100234 
L 449.307252 566.028818 
L 448.19521 565.957465 
L 447.083168 565.886174 
L 445.971126 565.814947 
L 444.859084 565.743783 
L 443.747042 565.672681 
L 442.635 565.601643 
L 441.522958 565.530668 
L 440.410916 565.459757 
L 439.298874 565.388909 
L 438.186832 565.318125 
L 437.07479 565.247404 
L 435.962748 565.176747 
L 434.850706 565.106154 
L 433.738664 565.035625 
L 432.626622 564.965159 
L 431.51458 564.894758 
L 430.402538 564.824421 
L 429.290495 564.754148 
L 428.178453 564.683939 
L 427.066411 564.613795 
L 425.954369 564.543715 
L 424.842327 564.473699 
L 423.730285 564.403747 
L 422.618243 564.333861 
L 421.506201 564.264038 
L 420.394159 564.19428 
L 419.282117 564.124587 
L 418.170075 564.054959 
L 417.058033 563.985395 
L 415.945991 563.915895 
L 414.833949 563.846461 
L 413.721907 563.777091 
L 412.609865 563.707786 
L 411.497823 563.638546 
L 410.385781 563.56937 
L 409.273739 563.500259 
L 408.161697 563.431213 
L 407.049655 563.362232 
L 405.937613 563.293316 
L 404.825571 563.224464 
L 403.713529 563.155677 
L 402.601486 563.086955 
L 401.489444 563.018298 
L 400.377402 562.949705 
L 399.26536 562.881177 
L 398.153318 562.812714 
L 397.041276 562.744316 
L 395.929234 562.675982 
L 394.817192 562.607713 
L 393.70515 562.539508 
L 392.593108 562.471368 
L 391.481066 562.403292 
L 390.369024 562.335281 
L 389.256982 562.267334 
L 388.14494 562.199452 
L 387.032898 562.131634 
L 385.920856 562.06388 
L 384.808814 561.996191 
L 383.696772 561.928565 
L 382.58473 561.861004 
L 381.472688 561.793507 
L 380.360646 561.726074 
L 379.248604 561.658704 
L 378.136562 561.591398 
L 377.02452 561.524156 
L 375.912477 561.456978 
L 374.800435 561.389863 
L 373.688393 561.322812 
L 372.576351 561.255824 
L 371.464309 561.1889 
L 370.352267 561.122038 
L 369.240225 561.05524 
L 368.128183 560.988504 
L 367.016141 560.921832 
L 365.904099 560.855222 
L 364.792057 560.788675 
L 363.680015 560.72219 
L 362.567973 560.655768 
L 361.455931 560.589408 
L 360.343889 560.523111 
L 359.231847 560.456875 
L 358.119805 560.390701 
L 357.007763 560.324589 
L 355.895721 560.258539 
L 354.783679 560.19255 
L 353.671637 560.126623 
L 352.559595 560.060757 
L 351.447553 559.994952 
L 350.335511 559.929208 
L 349.223468 559.863524 
L 348.111426 559.797902 
L 346.999384 559.732339 
L 345.887342 559.666837 
L 344.7753 559.601396 
L 343.663258 559.536014 
L 342.551216 559.470692 
L 341.439174 559.40543 
L 340.327132 559.340227 
L 339.21509 559.275083 
L 338.103048 559.209999 
L 336.991006 559.144973 
L 335.878964 559.080006 
L 334.766922 559.015098 
L 333.65488 558.950248 
L 332.542838 558.885456 
L 331.430796 558.820723 
L 330.318754 558.756047 
L 329.206712 558.691428 
L 328.09467 558.626867 
L 326.982628 558.562363 
L 325.870586 558.497917 
L 324.758544 558.433526 
L 323.646502 558.369193 
L 322.534459 558.304916 
L 321.422417 558.240694 
L 320.310375 558.176529 
L 319.198333 558.11242 
L 318.086291 558.048365 
L 316.974249 557.984366 
L 315.862207 557.920422 
L 314.750165 557.856533 
L 313.638123 557.792698 
L 312.526081 557.728918 
L 311.414039 557.665191 
L 310.301997 557.601519 
L 309.189955 557.5379 
L 308.077913 557.474334 
L 306.965871 557.410821 
L 305.853829 557.347361 
L 304.741787 557.283953 
L 303.629745 557.220598 
L 302.517703 557.157295 
L 301.405661 557.094044 
L 300.293619 557.030844 
L 299.181577 556.967695 
L 298.069535 556.904598 
L 296.957492 556.841551 
L 295.84545 556.778554 
L 294.733408 556.715608 
L 293.621366 556.652712 
L 292.509324 556.589865 
L 291.397282 556.527067 
L 290.28524 556.464319 
L 289.173198 556.40162 
L 288.061156 556.338968 
L 286.949114 556.276366 
L 285.837072 556.213811 
L 284.72503 556.151303 
L 283.612988 556.088844 
L 282.500946 556.026431 
L 281.388904 555.964065 
L 280.276862 555.901745 
L 279.16482 555.839472 
L 278.052778 555.777244 
L 276.940736 555.715062 
L 275.828694 555.652925 
L 274.716652 555.590834 
L 273.60461 555.528787 
L 272.492568 555.466784 
L 271.380526 555.404825 
L 270.268483 555.342911 
L 269.156441 555.281039 
L 268.044399 555.219211 
L 266.932357 555.157426 
L 265.820315 555.095683 
L 264.708273 555.033982 
L 263.596231 554.972323 
L 262.484189 554.910706 
L 261.372147 554.84913 
L 260.260105 554.787595 
L 259.148063 554.7261 
L 258.036021 554.664646 
L 256.923979 554.603232 
L 255.811937 554.541857 
L 254.699895 554.480522 
L 253.587853 554.419225 
L 252.475811 554.357968 
L 251.363769 554.296748 
L 250.251727 554.235567 
L 249.139685 554.174424 
L 248.027643 554.113317 
L 246.915601 554.052248 
L 245.803559 553.991215 
L 244.691517 553.930219 
L 243.579474 553.869259 
L 242.467432 553.808335 
L 241.35539 553.747446 
L 240.243348 553.686592 
L 239.131306 553.625772 
L 238.019264 553.564987 
L 236.907222 553.504236 
L 235.79518 553.443519 
L 234.683138 553.382835 
L 233.571096 553.322184 
L 232.459054 553.261566 
L 231.347012 553.20098 
L 230.23497 553.140426 
L 229.122928 553.079904 
L 228.010886 553.019413 
L 226.898844 552.958953 
L 225.786802 552.898524 
L 224.67476 552.838125 
L 223.562718 552.777757 
L 222.450676 552.717418 
L 221.338634 552.657108 
L 220.226592 552.596827 
L 219.11455 552.536575 
L 218.002508 552.476351 
L 216.890465 552.416155 
L 215.778423 552.355987 
L 214.666381 552.295846 
L 213.554339 552.235732 
L 212.442297 552.175644 
L 211.330255 552.115583 
L 210.218213 552.055548 
L 209.106171 551.995539 
L 207.994129 551.935555 
L 206.882087 551.875596 
L 205.770045 551.815661 
L 204.658003 551.755751 
L 203.545961 551.695865 
L 202.433919 551.636002 
L 201.321877 551.576163 
L 200.209835 551.516347 
L 199.097793 551.456554 
L 197.985751 551.396782 
L 196.873709 551.337033 
L 195.761667 551.277306 
L 194.649625 551.2176 
L 193.537583 551.157915 
L 192.425541 551.09825 
L 191.313498 551.038606 
L 190.201456 550.978983 
L 189.089414 550.919379 
L 187.977372 550.859794 
L 186.86533 550.800229 
L 185.753288 550.740682 
L 184.641246 550.681154 
L 183.529204 550.621644 
L 182.417162 550.562152 
L 181.30512 550.502678 
L 180.193078 550.443221 
L 179.081036 550.383781 
L 177.968994 550.324357 
L 176.856952 550.26495 
L 175.74491 550.205559 
L 174.632868 550.146184 
L 173.520826 550.086824 
L 172.408784 550.02748 
L 171.296742 549.96815 
L 170.1847 549.908835 
L 169.072658 549.849535 
L 167.960616 549.790248 
L 166.848574 549.730975 
L 165.736532 549.671715 
L 164.624489 549.612469 
L 163.512447 549.553236 
L 162.400405 549.494015 
L 161.288363 549.434806 
L 160.176321 549.37561 
L 159.064279 549.316425 
L 157.952237 549.257252 
L 156.840195 549.19809 
L 155.728153 549.138939 
L 154.616111 549.079799 
L 153.504069 549.02067 
L 152.392027 548.96155 
L 151.279985 548.902441 
L 150.167943 548.843341 
L 149.055901 548.78425 
L 147.943859 548.725169 
L 146.831817 548.666097 
L 145.719775 548.607034 
L 144.607733 548.547979 
L 143.495691 548.488932 
L 142.383649 548.429893 
L 141.271607 548.370862 
L 140.159565 548.311839 
L 139.047523 548.252823 
L 137.93548 548.193814 
L 136.823438 548.134812 
L 135.711396 548.075816 
L 134.599354 548.016827 
L 133.487312 547.957845 
L 132.37527 547.898868 
L 131.263228 547.839897 
L 130.151186 547.780932 
L 129.039144 547.721972 
L 127.927102 547.663017 
L 126.81506 547.604067 
L 125.703018 547.545123 
L 124.590976 547.486183 
L 123.478934 547.427247 
L 122.366892 547.368316 
L 121.25485 547.309388 
L 120.142808 547.250465 
L 119.030766 547.191545 
L 117.918724 547.132629 
L 116.806682 547.073717 
L 115.69464 547.014808 
L 114.582598 546.955902 
L 113.470556 546.896998 
L 112.358514 546.838098 
L 111.246471 546.779201 
L 110.134429 546.720305 
L 109.022387 546.661413 
L 107.910345 546.602522 
L 106.798303 546.543634 
L 105.686261 546.484748 
L 104.574219 546.425863 
L 103.462177 546.36698 
L 102.350135 546.308099 
L 101.238093 546.24922 
L 100.126051 546.190342 
L 99.014009 546.131465 
L 97.901967 546.072589 
L 96.789925 546.013715 
L 95.677883 545.954841 
L 94.565841 545.895969 
L 93.453799 545.837097 
L 92.341757 545.778226 
L 91.229715 545.719356 
L 90.117673 545.660486 
L 89.005631 545.601617 
L 87.893589 545.542749 
L 86.781547 545.483881 
L 85.669505 545.425013 
L 84.557462 545.366145 
L 83.44542 545.307278 
L 82.333378 545.248411 
L 81.221336 545.189544 
L 80.109294 545.130678 
L 78.997252 545.071811 
L 77.88521 545.012944 
L 76.773168 544.954078 
L 75.661126 544.895212 
L 74.549084 544.836345 
L 73.437042 544.777479 
L 72.325 631.628438 
z
" clip-path="url(#p686137a742)" style="fill: #ffa500; fill-opacity: 0.2; stroke: #ffa500; stroke-opacity: 0.2"/>
   </g>
   <g id="matplotlib.axis_1">
    <g id="xtick_1">
     <g id="line2d_1">
      <defs>
       <path id="m7dc265dddf" d="M 0 0 
L 0 3.5 
" style="stroke: #000000; stroke-width: 0.8"/>
      </defs>
      <g>
       <use xlink:href="#m7dc265dddf" x="72.325" y="631.628438" style="stroke: #000000; stroke-width: 0.8"/>
      </g>
     </g>
     <g id="text_1">
      <text style="font-size: 18px; font-family: 'SimHei', 'DejaVu Sans', sans-serif; text-anchor: middle" x="72.325" y="651.003438" transform="rotate(-0 72.325 651.003438)">0.00</text>
     </g>
    </g>
    <g id="xtick_2">
     <g id="line2d_2">
      <g>
       <use xlink:href="#m7dc265dddf" x="188.046875" y="631.628438" style="stroke: #000000; stroke-width: 0.8"/>
      </g>
     </g>
     <g id="text_2">
      <text style="font-size: 18px; font-family: 'SimHei', 'DejaVu Sans', sans-serif; text-anchor: middle" x="188.046875" y="651.003438" transform="rotate(-0 188.046875 651.003438)">0.25</text>
     </g>
    </g>
    <g id="xtick_3">
     <g id="line2d_3">
      <g>
       <use xlink:href="#m7dc265dddf" x="303.76875" y="631.628438" style="stroke: #000000; stroke-width: 0.8"/>
      </g>
     </g>
     <g id="text_3">
      <text style="font-size: 18px; font-family: 'SimHei', 'DejaVu Sans', sans-serif; text-anchor: middle" x="303.76875" y="651.003438" transform="rotate(-0 303.76875 651.003438)">0.50</text>
     </g>
    </g>
    <g id="xtick_4">
     <g id="line2d_4">
      <g>
       <use xlink:href="#m7dc265dddf" x="419.490625" y="631.628438" style="stroke: #000000; stroke-width: 0.8"/>
      </g>
     </g>
     <g id="text_4">
      <text style="font-size: 18px; font-family: 'SimHei', 'DejaVu Sans', sans-serif; text-anchor: middle" x="419.490625" y="651.003438" transform="rotate(-0 419.490625 651.003438)">0.75</text>
     </g>
    </g>
    <g id="xtick_5">
     <g id="line2d_5">
      <g>
       <use xlink:href="#m7dc265dddf" x="535.2125" y="631.628438" style="stroke: #000000; stroke-width: 0.8"/>
      </g>
     </g>
     <g id="text_5">
      <text style="font-size: 18px; font-family: 'SimHei', 'DejaVu Sans', sans-serif; text-anchor: middle" x="535.2125" y="651.003438" transform="rotate(-0 535.2125 651.003438)">1.00</text>
     </g>
    </g>
    <g id="xtick_6">
     <g id="line2d_6">
      <g>
       <use xlink:href="#m7dc265dddf" x="650.934375" y="631.628438" style="stroke: #000000; stroke-width: 0.8"/>
      </g>
     </g>
     <g id="text_6">
      <text style="font-size: 18px; font-family: 'SimHei', 'DejaVu Sans', sans-serif; text-anchor: middle" x="650.934375" y="651.003438" transform="rotate(-0 650.934375 651.003438)">1.25</text>
     </g>
    </g>
    <g id="xtick_7">
     <g id="line2d_7">
      <g>
       <use xlink:href="#m7dc265dddf" x="766.65625" y="631.628438" style="stroke: #000000; stroke-width: 0.8"/>
      </g>
     </g>
     <g id="text_7">
      <text style="font-size: 18px; font-family: 'SimHei', 'DejaVu Sans', sans-serif; text-anchor: middle" x="766.65625" y="651.003438" transform="rotate(-0 766.65625 651.003438)">1.50</text>
     </g>
    </g>
    <g id="xtick_8">
     <g id="line2d_8">
      <g>
       <use xlink:href="#m7dc265dddf" x="882.378125" y="631.628438" style="stroke: #000000; stroke-width: 0.8"/>
      </g>
     </g>
     <g id="text_8">
      <text style="font-size: 18px; font-family: 'SimHei', 'DejaVu Sans', sans-serif; text-anchor: middle" x="882.378125" y="651.003438" transform="rotate(-0 882.378125 651.003438)">1.75</text>
     </g>
    </g>
    <g id="xtick_9">
     <g id="line2d_9">
      <g>
       <use xlink:href="#m7dc265dddf" x="998.1" y="631.628438" style="stroke: #000000; stroke-width: 0.8"/>
      </g>
     </g>
     <g id="text_9">
      <text style="font-size: 18px; font-family: 'SimHei', 'DejaVu Sans', sans-serif; text-anchor: middle" x="998.1" y="651.003438" transform="rotate(-0 998.1 651.003438)">2.00</text>
     </g>
    </g>
    <g id="text_10">
     <text style="font-size: 20px; font-family: 'SimHei', 'DejaVu Sans', sans-serif; text-anchor: middle" x="581.50125" y="672.956563" transform="rotate(-0 581.50125 672.956563)"> (MeV)</text>
    </g>
   </g>
   <g id="matplotlib.axis_2">
    <g id="ytick_1">
     <g id="line2d_10">
      <defs>
       <path id="m5c0f2354e4" d="M 0 0 
L -3.5 0 
" style="stroke: #000000; stroke-width: 0.8"/>
      </defs>
      <g>
       <use xlink:href="#m5c0f2354e4" x="72.325" y="631.628438" style="stroke: #000000; stroke-width: 0.8"/>
      </g>
     </g>
     <g id="text_11">
      <text style="font-size: 18px; font-family: 'SimHei', 'DejaVu Sans', sans-serif; text-anchor: end" x="65.325" y="637.815938" transform="rotate(-0 65.325 637.815938)">0.00</text>
     </g>
    </g>
    <g id="ytick_2">
     <g id="line2d_11">
      <g>
       <use xlink:href="#m5c0f2354e4" x="72.325" y="559.203583" style="stroke: #000000; stroke-width: 0.8"/>
      </g>
     </g>
     <g id="text_12">
      <text style="font-size: 18px; font-family: 'SimHei', 'DejaVu Sans', sans-serif; text-anchor: end" x="65.325" y="565.391083" transform="rotate(-0 65.325 565.391083)">0.25</text>
     </g>
    </g>
    <g id="ytick_3">
     <g id="line2d_12">
      <g>
       <use xlink:href="#m5c0f2354e4" x="72.325" y="486.778729" style="stroke: #000000; stroke-width: 0.8"/>
      </g>
     </g>
     <g id="text_13">
      <text style="font-size: 18px; font-family: 'SimHei', 'DejaVu Sans', sans-serif; text-anchor: end" x="65.325" y="492.966229" transform="rotate(-0 65.325 492.966229)">0.50</text>
     </g>
    </g>
    <g id="ytick_4">
     <g id="line2d_13">
      <g>
       <use xlink:href="#m5c0f2354e4" x="72.325" y="414.353875" style="stroke: #000000; stroke-width: 0.8"/>
      </g>
     </g>
     <g id="text_14">
      <text style="font-size: 18px; font-family: 'SimHei', 'DejaVu Sans', sans-serif; text-anchor: end" x="65.325" y="420.541375" transform="rotate(-0 65.325 420.541375)">0.75</text>
     </g>
    </g>
    <g id="ytick_5">
     <g id="line2d_14">
      <g>
       <use xlink:href="#m5c0f2354e4" x="72.325" y="341.92902" style="stroke: #000000; stroke-width: 0.8"/>
      </g>
     </g>
     <g id="text_15">
      <text style="font-size: 18px; font-family: 'SimHei', 'DejaVu Sans', sans-serif; text-anchor: end" x="65.325" y="348.11652" transform="rotate(-0 65.325 348.11652)">1.00</text>
     </g>
    </g>
    <g id="ytick_6">
     <g id="line2d_15">
      <g>
       <use xlink:href="#m5c0f2354e4" x="72.325" y="269.504166" style="stroke: #000000; stroke-width: 0.8"/>
      </g>
     </g>
     <g id="text_16">
      <text style="font-size: 18px; font-family: 'SimHei', 'DejaVu Sans', sans-serif; text-anchor: end" x="65.325" y="275.691666" transform="rotate(-0 65.325 275.691666)">1.25</text>
     </g>
    </g>
    <g id="ytick_7">
     <g id="line2d_16">
      <g>
       <use xlink:href="#m5c0f2354e4" x="72.325" y="197.079312" style="stroke: #000000; stroke-width: 0.8"/>
      </g>
     </g>
     <g id="text_17">
      <text style="font-size: 18px; font-family: 'SimHei', 'DejaVu Sans', sans-serif; text-anchor: end" x="65.325" y="203.266812" transform="rotate(-0 65.325 203.266812)">1.50</text>
     </g>
    </g>
    <g id="ytick_8">
     <g id="line2d_17">
      <g>
       <use xlink:href="#m5c0f2354e4" x="72.325" y="124.654458" style="stroke: #000000; stroke-width: 0.8"/>
      </g>
     </g>
     <g id="text_18">
      <text style="font-size: 18px; font-family: 'SimHei', 'DejaVu Sans', sans-serif; text-anchor: end" x="65.325" y="130.841958" transform="rotate(-0 65.325 130.841958)">1.75</text>
     </g>
    </g>
    <g id="ytick_9">
     <g id="line2d_18">
      <g>
       <use xlink:href="#m5c0f2354e4" x="72.325" y="52.229603" style="stroke: #000000; stroke-width: 0.8"/>
      </g>
     </g>
     <g id="text_19">
      <text style="font-size: 18px; font-family: 'SimHei', 'DejaVu Sans', sans-serif; text-anchor: end" x="65.325" y="58.417103" transform="rotate(-0 65.325 58.417103)">2.00</text>
     </g>
    </g>
    <g id="text_20">
     <text style="font-size: 20px; font-family: 'SimHei', 'DejaVu Sans', sans-serif; text-anchor: middle" x="22.825" y="338.394688" transform="rotate(-90 22.825 338.394688)"></text>
    </g>
   </g>
   <g id="line2d_19">
    <path d="M 72.325 631.078009 
L 73.437042 545.73256 
L 74.549084 542.806596 
L 75.661126 540.460031 
L 76.773168 542.343077 
L 77.88521 539.504023 
L 78.997252 536.17248 
L 80.109294 532.174628 
L 81.221336 530.494371 
L 82.333378 526.554459 
L 83.44542 525.569481 
L 84.557462 522.006178 
L 85.669505 521.774419 
L 86.781547 524.497593 
L 87.893589 524.816262 
L 89.005631 531.16068 
L 90.117673 533.449305 
L 91.229715 536.491149 
L 92.341757 538.316255 
L 93.453799 537.678917 
L 95.677883 546.688568 
L 96.789925 548.774404 
L 97.901967 546.02226 
L 99.014009 544.139214 
L 100.126051 547.094148 
L 101.238093 548.137065 
L 102.350135 544.950372 
L 103.462177 545.384921 
L 104.574219 545.095222 
L 105.686261 547.123118 
L 106.798303 544.573763 
L 107.910345 547.383847 
L 109.022387 547.528697 
L 110.134429 545.645651 
L 111.246471 544.573763 
L 112.358514 548.977194 
L 113.470556 545.645651 
L 114.582598 545.645651 
L 115.69464 546.920328 
L 116.806682 547.934276 
L 117.918724 544.660672 
L 119.030766 547.586637 
L 120.142808 548.542645 
L 121.25485 548.281915 
L 122.366892 544.457883 
L 123.478934 546.804448 
L 125.703018 545.240071 
L 126.81506 546.02226 
L 127.927102 548.455735 
L 129.039144 548.977194 
L 130.151186 546.0802 
L 132.37527 549.875262 
L 133.487312 544.486853 
L 134.599354 547.673546 
L 135.711396 548.368825 
L 136.823438 543.501875 
L 137.93548 547.673546 
L 139.047523 548.600585 
L 140.159565 547.007238 
L 141.271607 550.83127 
L 142.383649 544.689642 
L 143.495691 548.861314 
L 144.607733 545.90638 
L 145.719775 547.644576 
L 146.831817 546.601659 
L 147.943859 544.979342 
L 149.055901 547.615607 
L 151.279985 543.009386 
L 152.392027 543.038356 
L 153.504069 541.589859 
L 154.616111 540.460031 
L 155.728153 537.157458 
L 156.840195 540.054452 
L 157.952237 535.245441 
L 159.064279 538.171406 
L 160.176321 533.999734 
L 161.288363 534.260463 
L 162.400405 535.73793 
L 163.512447 529.132784 
L 164.624489 531.18965 
L 165.736532 527.887076 
L 166.848574 525.337721 
L 167.960616 525.85918 
L 169.072658 527.394587 
L 170.1847 523.860254 
L 171.296742 526.14888 
L 172.408784 522.498667 
L 173.520826 521.339869 
L 174.632868 520.528711 
L 175.74491 522.295877 
L 176.856952 520.528711 
L 177.968994 520.586651 
L 179.081036 524.497593 
L 180.193078 523.396735 
L 181.30512 520.210042 
L 182.417162 521.919268 
L 183.529204 524.120984 
L 184.641246 527.278707 
L 185.753288 527.916046 
L 186.86533 527.336647 
L 187.977372 526.583429 
L 189.089414 531.18965 
L 190.201456 533.333425 
L 191.313498 531.769048 
L 192.425541 537.041578 
L 193.537583 533.420335 
L 194.649625 537.736856 
L 195.761667 541.445009 
L 196.873709 538.548015 
L 197.985751 541.01046 
L 199.097793 543.762604 
L 200.209835 542.603807 
L 201.321877 543.154236 
L 202.433919 546.02226 
L 203.545961 545.442861 
L 204.658003 546.717538 
L 205.770045 546.10917 
L 206.882087 549.469683 
L 207.994129 549.122044 
L 209.106171 550.078052 
L 210.218213 551.323759 
L 211.330255 555.466461 
L 212.442297 549.411743 
L 213.554339 553.293715 
L 214.666381 550.280841 
L 215.778423 551.207879 
L 216.890465 555.292641 
L 218.002508 551.932128 
L 219.11455 552.163887 
L 220.226592 550.94715 
L 221.338634 552.743286 
L 222.450676 550.88921 
L 223.562718 553.061956 
L 224.67476 554.481483 
L 225.786802 552.627406 
L 226.898844 552.221827 
L 228.010886 552.743286 
L 229.122928 553.409595 
L 230.23497 553.757234 
L 231.347012 556.770108 
L 232.459054 551.439639 
L 233.571096 553.438565 
L 234.683138 553.409595 
L 235.79518 555.060882 
L 236.907222 553.931054 
L 238.019264 552.975046 
L 239.131306 554.162813 
L 241.35539 553.061956 
L 242.467432 556.596288 
L 243.579474 550.8023 
L 244.691517 554.423543 
L 245.803559 554.162813 
L 246.915601 550.97612 
L 248.027643 555.553371 
L 249.139685 556.451439 
L 250.251727 556.596288 
L 251.363769 557.059808 
L 252.475811 552.627406 
L 253.587853 552.917106 
L 254.699895 556.538349 
L 255.811937 553.988994 
L 256.923979 553.554445 
L 258.036021 555.64028 
L 259.148063 553.583415 
L 260.260105 555.350581 
L 261.372147 555.553371 
L 262.484189 553.090926 
L 263.596231 553.844144 
L 264.708273 557.262597 
L 265.820315 555.060882 
L 266.932357 555.92998 
L 268.044399 555.69822 
L 269.156441 552.946076 
L 270.268483 556.132769 
L 271.380526 551.990068 
L 272.492568 554.887062 
L 273.60461 556.422469 
L 274.716652 554.800152 
L 275.828694 554.220753 
L 276.940736 557.986846 
L 278.052778 558.711094 
L 279.16482 555.84307 
L 280.276862 556.190709 
L 281.388904 557.233627 
L 282.500946 554.771182 
L 283.612988 557.523327 
L 284.72503 557.407447 
L 285.837072 553.322685 
L 286.949114 556.132769 
L 288.061156 553.409595 
L 289.173198 552.424617 
L 290.28524 549.353803 
L 292.509324 549.672472 
L 293.621366 548.774404 
L 294.733408 545.355951 
L 296.957492 533.391365 
L 298.069535 535.94072 
L 299.181577 534.868832 
L 300.293619 528.060896 
L 301.405661 525.88815 
L 302.517703 522.382787 
L 303.629745 524.497593 
L 304.741787 518.153176 
L 305.853829 517.342017 
L 306.965871 515.053392 
L 308.077913 513.749745 
L 309.189955 513.025496 
L 310.301997 515.719701 
L 311.414039 514.850602 
L 312.526081 514.618843 
L 313.638123 515.690731 
L 314.750165 521.774419 
L 315.862207 521.948238 
L 316.974249 532.551237 
L 318.086291 532.203598 
L 319.198333 534.376343 
L 320.310375 536.11454 
L 321.422417 541.329129 
L 322.534459 541.821618 
L 323.646502 546.456809 
L 324.758544 544.776552 
L 325.870586 551.758308 
L 326.982628 551.642428 
L 328.09467 555.72719 
L 329.206712 554.713242 
L 330.318754 555.72719 
L 331.430796 556.393499 
L 332.542838 555.263671 
L 333.65488 559.609162 
L 334.766922 557.001868 
L 335.878964 557.581266 
L 336.991006 560.536201 
L 338.103048 559.551223 
L 339.21509 559.522253 
L 340.327132 556.943928 
L 341.439174 559.261523 
L 342.551216 559.840922 
L 343.663258 561.231479 
L 344.7753 559.609162 
L 345.887342 559.811952 
L 346.999384 559.754012 
L 348.111426 559.232553 
L 349.223468 562.419247 
L 350.335511 561.810878 
L 351.447553 561.781908 
L 352.559595 561.550149 
L 353.671637 557.986846 
L 354.783679 559.493283 
L 355.895721 561.666028 
L 357.007763 561.897788 
L 358.119805 561.897788 
L 359.231847 562.419247 
L 360.343889 561.839848 
L 361.455931 560.56517 
L 362.567973 560.130621 
L 363.680015 558.826974 
L 364.792057 563.664954 
L 365.904099 559.464313 
L 367.016141 562.390277 
L 369.240225 560.56517 
L 370.352267 561.260449 
L 371.464309 565.113451 
L 372.576351 560.362381 
L 373.688393 561.289419 
L 374.800435 563.462165 
L 375.912477 561.318389 
L 377.02452 562.506157 
L 378.136562 562.882766 
L 379.248604 563.607014 
L 380.360646 561.347359 
L 381.472688 560.507231 
L 382.58473 564.186413 
L 383.696772 561.579118 
L 385.920856 562.969676 
L 387.032898 561.521179 
L 388.14494 561.781908 
L 389.256982 564.389203 
L 390.369024 563.433195 
L 391.481066 563.838774 
L 392.593108 563.983624 
L 393.70515 564.968602 
L 394.817192 562.969676 
L 395.929234 564.678902 
L 397.041276 561.289419 
L 398.153318 564.331263 
L 399.26536 560.275471 
L 400.377402 562.651006 
L 401.489444 561.839848 
L 402.601486 563.809804 
L 403.713529 563.114525 
L 404.825571 565.200361 
L 405.937613 564.186413 
L 407.049655 564.997572 
L 408.161697 563.317315 
L 409.273739 564.186413 
L 410.385781 564.302293 
L 411.497823 564.678902 
L 412.609865 562.593066 
L 413.721907 563.896714 
L 414.833949 564.476113 
L 415.945991 565.77976 
L 417.058033 561.173539 
L 418.170075 566.735768 
L 419.282117 563.838774 
L 420.394159 565.92461 
L 421.506201 565.57697 
L 422.618243 565.89564 
L 423.730285 563.722894 
L 424.842327 565.055511 
L 428.178453 564.823752 
L 429.290495 563.693924 
L 430.402538 565.98255 
L 431.51458 565.345211 
L 432.626622 562.766886 
L 433.738664 566.938558 
L 434.850706 564.591992 
L 435.962748 566.880618 
L 437.07479 564.765812 
L 438.186832 563.259375 
L 439.298874 566.996498 
L 440.410916 566.504009 
L 441.522958 564.389203 
L 442.635 566.185339 
L 443.747042 567.604866 
L 444.859084 567.488987 
L 445.971126 564.447143 
L 447.083168 566.967528 
L 448.19521 564.968602 
L 449.307252 565.142421 
L 450.419294 567.025467 
L 451.531336 567.431047 
L 452.643378 565.75079 
L 453.75542 566.272249 
L 454.867462 567.749716 
L 455.979505 566.156369 
L 457.091547 563.607014 
L 458.203589 565.432121 
L 459.315631 565.403151 
L 461.539715 566.590918 
L 462.651757 563.635984 
L 463.763799 566.446069 
L 464.875841 568.068385 
L 465.987883 564.418173 
L 467.099925 565.80873 
L 468.211967 569.082333 
L 469.324009 564.707872 
L 470.436051 566.619888 
L 471.548093 565.72182 
L 472.660135 566.359159 
L 473.772177 564.620962 
L 474.884219 566.648858 
L 475.996261 567.025467 
L 477.108303 565.113451 
L 478.220345 562.593066 
L 480.444429 566.098429 
L 481.556471 564.157443 
L 482.668514 566.532978 
L 483.780556 564.823752 
L 484.892598 564.505083 
L 486.00464 562.564096 
L 487.116682 561.231479 
L 488.228724 561.926758 
L 489.340766 561.984698 
L 490.452808 562.766886 
L 492.676892 559.522253 
L 493.788934 558.682124 
L 494.900976 560.275471 
L 496.013018 557.146717 
L 497.12506 557.291567 
L 498.237102 559.609162 
L 499.349144 555.8141 
L 500.461186 554.597362 
L 501.573228 554.858092 
L 502.68527 555.90101 
L 503.797312 555.75616 
L 504.909354 555.350581 
L 506.021396 553.554445 
L 507.133438 551.092 
L 508.24548 553.177835 
L 509.357523 551.149939 
L 510.469565 550.483631 
L 511.581607 550.309811 
L 512.693649 551.03406 
L 513.805691 548.426765 
L 514.917733 547.296937 
L 516.029775 546.659598 
L 517.141817 548.948224 
L 518.253859 549.440713 
L 519.365901 547.557667 
L 520.477943 549.933202 
L 521.589985 549.556593 
L 522.702027 549.962172 
L 523.814069 548.861314 
L 524.926111 547.152087 
L 526.038153 549.382773 
L 527.150195 550.049082 
L 528.262237 546.254019 
L 529.374279 548.108096 
L 530.486321 550.483631 
L 531.598363 549.556593 
L 532.710405 549.527623 
L 533.822447 551.758308 
L 534.934489 553.148865 
L 536.046532 552.279767 
L 537.158574 552.598437 
L 538.270616 551.265819 
L 539.382658 552.598437 
L 540.4947 552.830196 
L 541.606742 553.177835 
L 542.718784 554.510453 
L 543.830826 555.66925 
L 544.942868 557.088777 
L 546.05491 559.261523 
L 547.166952 556.857018 
L 548.278994 557.813026 
L 549.391036 560.478261 
L 550.503078 558.740064 
L 551.61512 561.839848 
L 552.727162 562.158517 
L 553.839204 559.927832 
L 554.951246 559.811952 
L 556.063288 565.142421 
L 557.17533 562.564096 
L 559.399414 564.910662 
L 560.511456 567.344137 
L 561.623498 563.983624 
L 563.847583 569.401003 
L 564.959625 566.272249 
L 566.071667 568.242205 
L 567.183709 566.648858 
L 568.295751 568.271175 
L 569.407793 571.081259 
L 570.519835 571.892418 
L 571.631877 573.514734 
L 572.743919 572.153147 
L 573.855961 574.412803 
L 574.968003 572.037267 
L 576.080045 573.196065 
L 577.192087 570.93641 
L 578.304129 574.123103 
L 579.416171 571.602718 
L 580.528213 571.805508 
L 581.640255 571.139199 
L 582.752297 572.906366 
L 583.864339 574.238983 
L 584.976381 573.282975 
L 586.088423 574.789412 
L 587.200465 575.71645 
L 588.312508 575.368811 
L 589.42455 575.74542 
L 590.536592 578.323745 
L 591.648634 575.65851 
L 592.760676 574.238983 
L 593.872718 575.80336 
L 594.98476 572.877396 
L 596.096802 575.310871 
L 597.208844 573.167095 
L 598.320886 575.54263 
L 599.432928 577.078037 
L 600.54497 577.222887 
L 601.657012 575.108081 
L 602.769054 574.557652 
L 603.881096 576.788338 
L 604.993138 575.74542 
L 606.10518 575.281901 
L 607.217222 577.744346 
L 608.329264 576.411729 
L 609.441306 578.845204 
L 610.553348 577.802286 
L 611.66539 575.426751 
L 612.777432 576.498638 
L 613.889474 579.221813 
L 615.001517 577.715376 
L 616.113559 576.469668 
L 617.225601 579.540482 
L 618.337643 576.817308 
L 619.449685 576.064089 
L 620.561727 577.715376 
L 621.673769 576.382759 
L 622.785811 577.135977 
L 623.897853 578.758294 
L 625.009895 576.788338 
L 626.121937 576.556578 
L 627.233979 577.338767 
L 628.346021 577.454647 
L 629.458063 577.860226 
L 630.570105 579.772242 
L 631.682147 576.817308 
L 632.794189 577.193917 
L 633.906231 579.192843 
L 635.018273 580.061941 
L 636.130315 577.396707 
L 637.242357 578.410655 
L 639.466441 578.497564 
L 640.578483 577.976105 
L 641.690526 578.149925 
L 642.802568 575.8613 
L 643.91461 578.816234 
L 645.026652 581.220739 
L 646.138694 578.758294 
L 648.362778 581.944987 
L 649.47482 580.235761 
L 650.586862 578.845204 
L 651.698904 578.874174 
L 652.810946 579.975031 
L 653.922988 579.337693 
L 655.03503 580.322671 
L 656.147072 581.510438 
L 657.259114 579.540482 
L 658.371156 582.379537 
L 659.483198 579.859152 
L 660.59524 577.686406 
L 661.707282 580.78619 
L 663.931366 581.075889 
L 665.043408 578.990053 
L 666.15545 581.944987 
L 667.267492 580.409581 
L 668.379535 579.482542 
L 669.491577 577.425677 
L 670.603619 579.598422 
L 671.715661 580.235761 
L 672.827703 580.351641 
L 673.939745 582.929965 
L 675.051787 579.366663 
L 676.163829 580.409581 
L 677.275871 583.277605 
L 678.387913 581.017949 
L 679.499955 582.872026 
L 680.611997 584.146703 
L 681.724039 582.698206 
L 682.836081 582.582326 
L 683.948123 582.350567 
L 685.060165 581.684258 
L 687.284249 581.075889 
L 688.396291 582.205717 
L 689.508333 583.654214 
L 690.620375 581.800138 
L 691.732417 582.031897 
L 692.844459 582.843056 
L 693.956502 584.175673 
L 695.068544 585.74005 
L 696.180586 582.553356 
L 697.292628 581.916018 
L 698.40467 580.960009 
L 699.516712 583.364515 
L 700.628754 581.481468 
L 701.740796 584.523312 
L 702.852838 580.988979 
L 703.96488 580.81516 
L 705.076922 581.973957 
L 706.188964 583.306575 
L 707.301006 580.84413 
L 708.413048 580.93104 
L 709.52509 580.380611 
L 710.637132 582.234687 
L 711.749174 580.75722 
L 712.861216 577.831256 
L 713.973258 580.293701 
L 715.0853 577.976105 
L 716.197342 577.860226 
L 717.309384 578.700354 
L 718.421426 579.221813 
L 719.533468 577.222887 
L 720.645511 573.978253 
L 721.757553 573.978253 
L 722.869595 574.731472 
L 723.981637 571.689628 
L 725.093679 572.732546 
L 726.205721 571.660658 
L 727.317763 568.647784 
L 728.429805 570.58877 
L 729.541847 566.475039 
L 730.653889 567.141347 
L 731.765931 565.57697 
L 732.877973 564.534052 
L 733.990015 565.75079 
L 735.102057 561.463239 
L 736.214099 563.085555 
L 737.326141 561.02869 
L 738.438183 560.188561 
L 739.550225 560.043712 
L 740.662267 556.567319 
L 741.774309 554.829122 
L 742.886351 556.132769 
L 743.998393 555.437491 
L 745.110435 553.438565 
L 746.222477 551.961098 
L 747.33452 550.135991 
L 748.446562 551.381699 
L 749.558604 548.050156 
L 750.670646 546.167109 
L 751.782688 546.804448 
L 752.89473 547.963246 
L 754.006772 546.978268 
L 755.118814 545.211101 
L 756.230856 549.093074 
L 757.342898 544.805522 
L 758.45494 545.182131 
L 759.566982 548.223975 
L 760.679024 543.501875 
L 761.791066 544.370973 
L 762.903108 544.370973 
L 764.01515 546.543719 
L 765.127192 545.81947 
L 766.239234 546.862388 
L 767.351276 540.95252 
L 768.463318 545.73256 
L 769.57536 545.240071 
L 770.687402 547.152087 
L 771.799444 545.616681 
L 772.911486 549.904232 
L 774.023529 548.919254 
L 775.135571 551.120969 
L 776.247613 554.452513 
L 777.359655 554.742212 
L 778.471697 557.697146 
L 779.583739 554.858092 
L 780.695781 557.813026 
L 781.807823 557.436417 
L 782.919865 561.434269 
L 784.031907 560.65208 
L 786.255991 563.317315 
L 787.368033 565.89564 
L 788.480075 568.097355 
L 789.592117 569.111303 
L 790.704159 570.414951 
L 791.816201 572.297997 
L 792.928243 573.572674 
L 794.040285 573.254005 
L 795.152327 574.354863 
L 796.264369 576.353789 
L 797.376411 576.933188 
L 798.488453 578.439625 
L 799.600495 578.729324 
L 800.712538 579.569452 
L 801.82458 579.627392 
L 802.936622 578.787264 
L 804.048664 583.683184 
L 805.160706 582.785116 
L 806.272748 584.928891 
L 808.496832 585.363441 
L 809.608874 586.667088 
L 810.720916 585.392411 
L 811.832958 587.652066 
L 812.945 586.753998 
L 815.169084 589.535112 
L 816.281126 589.911721 
L 817.393168 588.434254 
L 818.50521 589.245413 
L 819.617252 588.694984 
L 820.729294 587.536186 
L 821.841336 589.216443 
L 822.953378 591.505068 
L 824.06542 590.46215 
L 825.177462 589.795842 
L 826.289505 591.707858 
L 827.401547 590.49112 
L 828.513589 590.46215 
L 829.625631 591.244339 
L 831.849715 591.794768 
L 832.961757 591.418158 
L 834.073799 593.272235 
L 835.185841 592.113437 
L 836.297883 593.446054 
L 837.409925 592.374166 
L 838.521967 592.142407 
L 839.634009 593.098415 
L 840.746051 594.344123 
L 841.858093 592.345197 
L 842.970135 593.880603 
L 844.082177 594.981461 
L 845.194219 594.373092 
L 846.306261 594.315153 
L 847.418303 595.47395 
L 848.530345 595.56086 
L 849.642387 594.517942 
L 850.754429 592.316227 
L 851.866471 593.735754 
L 852.978514 594.402062 
L 854.090556 593.793694 
L 855.202598 594.170303 
L 856.31464 593.938543 
L 857.426682 595.300131 
L 858.538724 595.271161 
L 859.650766 595.966439 
L 860.762808 593.619874 
L 861.87485 593.996483 
L 862.986892 592.692836 
L 864.098934 594.952491 
L 865.210976 594.604852 
L 866.323018 594.749702 
L 867.43506 596.545838 
L 868.547102 596.314079 
L 869.659144 594.112363 
L 870.771186 597.965365 
L 871.883228 595.908499 
L 872.99527 596.922447 
L 874.107312 595.155281 
L 875.219354 595.70571 
L 876.331396 595.155281 
L 877.443438 593.764724 
L 878.55548 597.009357 
L 879.667523 596.024379 
L 880.779565 594.431032 
L 881.891607 507.173568 
L 883.003649 512.185368 
L 885.227733 509.925712 
L 886.339775 508.390305 
L 887.451817 511.605969 
L 888.563859 505.95683 
L 890.787943 511.34524 
L 891.899985 509.954682 
L 893.012027 510.157472 
L 894.124069 545.326981 
L 895.236111 544.689642 
L 896.348153 543.733634 
L 897.460195 543.762604 
L 898.572237 546.10917 
L 899.684279 542.777626 
L 900.796321 547.412817 
L 901.908363 545.96432 
L 903.020405 544.834492 
L 904.132447 630.58552 
L 905.244489 630.35376 
L 906.356532 630.49861 
L 907.468574 630.20891 
L 908.580616 630.29582 
L 909.692658 629.832301 
L 910.8047 629.658481 
L 911.916742 628.992173 
L 913.028784 628.731443 
L 914.140826 628.702473 
L 915.252868 627.978225 
L 916.36491 627.775435 
L 917.476952 626.442818 
L 918.588994 627.369856 
L 919.701036 626.297968 
L 920.813078 626.240028 
L 921.92512 625.42887 
L 923.037162 623.777583 
L 924.149204 623.429944 
L 925.261246 622.387026 
L 926.373288 620.822649 
L 927.48533 619.866641 
L 928.597372 619.432092 
L 931.933498 614.391322 
L 933.045541 614.391322 
L 934.157583 612.073727 
L 935.269625 609.176733 
L 936.381667 609.234673 
L 937.493709 604.280813 
L 938.605751 604.106993 
L 939.717793 600.253991 
L 940.829835 597.501846 
L 941.941877 593.619874 
L 943.053919 592.142407 
L 944.165961 587.130607 
L 945.278003 584.986831 
L 946.390045 582.495416 
L 948.614129 571.921388 
L 949.726171 569.314093 
L 950.838213 563.056585 
L 951.950255 558.189635 
L 953.062297 552.424617 
L 954.174339 548.310885 
L 955.286381 541.734708 
L 956.398423 539.938572 
L 957.510465 528.958964 
L 958.622508 526.786218 
L 959.73455 520.354891 
L 960.846592 509.925712 
L 961.958634 509.954682 
L 963.070676 498.105976 
L 964.182718 495.469711 
L 965.29476 484.866713 
L 966.406802 476.986889 
L 967.518844 471.946119 
L 968.630886 464.153204 
L 969.742928 457.692907 
L 970.85497 454.969733 
L 971.967012 451.31952 
L 973.079054 441.61459 
L 974.191096 429.157515 
L 975.303138 424.754084 
L 976.41518 416.294861 
L 977.527222 410.790572 
L 978.639264 406.53199 
L 979.751306 397.290579 
L 980.863348 391.64144 
L 981.97539 389.874274 
L 983.087432 385.412903 
L 984.199474 373.448317 
L 985.311517 370.638233 
L 986.423559 365.510553 
L 987.535601 363.308837 
L 989.759685 352.445109 
L 990.871727 349.461205 
L 991.983769 341.639321 
L 993.095811 348.041678 
L 994.207853 346.419361 
L 995.319895 343.783097 
L 996.431937 338.394688 
L 997.543979 342.885028 
L 998.656021 340.306704 
L 999.768063 341.465501 
L 1000.880105 340.712283 
L 1001.992147 344.043826 
L 1003.104189 345.405413 
L 1005.328273 351.083522 
L 1006.440315 353.227298 
L 1007.552357 360.180084 
L 1008.664399 362.15004 
L 1009.776441 372.14467 
L 1010.888483 368.639307 
L 1012.000526 373.564197 
L 1013.112568 381.76269 
L 1014.22461 388.194017 
L 1015.336652 396.94294 
L 1016.448694 398.014828 
L 1017.560736 403.924696 
L 1018.672778 410.442933 
L 1019.78482 421.45151 
L 1020.896862 422.030909 
L 1023.120946 440.977251 
L 1024.232988 446.68433 
L 1026.457072 460.937541 
L 1027.569114 468.237966 
L 1028.681156 470.816291 
L 1029.793198 482.664997 
L 1030.90524 487.676797 
L 1032.017282 496.744389 
L 1033.129324 499.525503 
L 1034.241366 507.723997 
L 1035.353408 512.301248 
L 1036.46545 519.485793 
L 1037.577492 524.787292 
L 1038.689535 527.858106 
L 1039.801577 541.242219 
L 1040.913619 544.486853 
L 1042.025661 546.254019 
L 1043.137703 554.858092 
L 1044.249745 559.000794 
L 1045.361787 566.243279 
L 1046.473829 572.008297 
L 1047.585871 570.328041 
L 1048.697913 576.411729 
L 1049.809955 580.988979 
L 1050.921997 581.829108 
L 1052.034039 587.941765 
L 1053.146081 591.794768 
L 1054.258123 595.126311 
L 1055.370165 597.183177 
L 1056.482207 599.529742 
L 1057.594249 603.701414 
L 1058.706291 605.58446 
L 1059.818333 606.105919 
L 1060.930375 609.147763 
L 1062.042417 610.219651 
L 1063.154459 614.391322 
L 1064.266502 614.594112 
L 1065.378544 616.303338 
L 1066.490586 616.911707 
L 1067.602628 619.055483 
L 1068.71467 619.953551 
L 1069.826712 622.387026 
L 1070.938754 621.836597 
L 1072.050796 623.748613 
L 1073.162838 624.646682 
L 1074.27488 624.530802 
L 1075.386922 625.979299 
L 1076.498964 625.689599 
L 1078.723048 628.499684 
L 1079.83509 627.862345 
L 1080.947132 628.209984 
L 1082.059174 629.050113 
L 1083.171216 628.673503 
L 1084.283258 629.542602 
L 1085.3953 629.716421 
L 1088.731426 629.890241 
L 1089.843468 630.61449 
L 1090.955511 630.38273 
L 1092.067553 630.904189 
L 1093.179595 630.730369 
L 1095.403679 631.222858 
L 1096.515721 630.962129 
L 1097.627763 631.106979 
L 1098.8775 631.117467 
L 1098.8775 631.117467 
" clip-path="url(#p686137a742)" style="fill: none; stroke: #0000ff; stroke-opacity: 0.7; stroke-width: 3; stroke-linecap: square"/>
   </g>
   <g id="line2d_20">
    <path d="M 85.28585 631.628438 
L 85.28585 45.160938 
" clip-path="url(#p686137a742)" style="fill: none; stroke-dasharray: 11.1,4.8; stroke-dashoffset: 0; stroke: #000000; stroke-width: 3"/>
   </g>
   <g id="line2d_21">
    <path d="M 177.195544 631.628438 
L 177.195544 45.160938 
" clip-path="url(#p686137a742)" style="fill: none; stroke-dasharray: 11.1,4.8; stroke-dashoffset: 0; stroke: #000000; stroke-width: 3"/>
   </g>
   <g id="line2d_22">
    <path d="M 308.860512 631.628438 
L 308.860512 45.160938 
" clip-path="url(#p686137a742)" style="fill: none; stroke-dasharray: 11.1,4.8; stroke-dashoffset: 0; stroke: #000000; stroke-width: 3"/>
   </g>
   <g id="line2d_23">
    <path d="M 525.028975 631.628438 
L 525.028975 45.160938 
" clip-path="url(#p686137a742)" style="fill: none; stroke-dasharray: 11.1,4.8; stroke-dashoffset: 0; stroke: #000000; stroke-width: 3"/>
   </g>
   <g id="line2d_24">
    <path d="M 761.564487 631.628438 
L 761.564487 45.160938 
" clip-path="url(#p686137a742)" style="fill: none; stroke-dasharray: 11.1,4.8; stroke-dashoffset: 0; stroke: #000000; stroke-width: 3"/>
   </g>
   <g id="line2d_25">
    <path d="M 893.229456 631.628438 
L 893.229456 45.160938 
" clip-path="url(#p686137a742)" style="fill: none; stroke-dasharray: 11.1,4.8; stroke-dashoffset: 0; stroke: #000000; stroke-width: 3"/>
   </g>
   <g id="line2d_26">
    <path d="M 998.1 631.628438 
L 998.1 45.160938 
" clip-path="url(#p686137a742)" style="fill: none; stroke-dasharray: 11.1,4.8; stroke-dashoffset: 0; stroke: #000000; stroke-width: 3"/>
   </g>
   <g id="patch_3">
    <path d="M 72.325 631.628438 
L 72.325 45.160938 
" style="fill: none; stroke: #000000; stroke-width: 0.8; stroke-linejoin: miter; stroke-linecap: square"/>
   </g>
   <g id="patch_4">
    <path d="M 1090.6775 631.628438 
L 1090.6775 45.160938 
" style="fill: none; stroke: #000000; stroke-width: 0.8; stroke-linejoin: miter; stroke-linecap: square"/>
   </g>
   <g id="patch_5">
    <path d="M 72.325 631.628438 
L 1090.6775 631.628438 
" style="fill: none; stroke: #000000; stroke-width: 0.8; stroke-linejoin: miter; stroke-linecap: square"/>
   </g>
   <g id="patch_6">
    <path d="M 72.325 45.160938 
L 1090.6775 45.160938 
" style="fill: none; stroke: #000000; stroke-width: 0.8; stroke-linejoin: miter; stroke-linecap: square"/>
   </g>
   <g id="text_21">
    <g id="patch_7">
     <path d="M 26.78585 505.203615 
L 143.78585 505.203615 
Q 149.18585 505.203615 149.18585 499.803615 
L 149.18585 464.830177 
Q 149.18585 459.430177 143.78585 459.430177 
L 26.78585 459.430177 
Q 21.38585 459.430177 21.38585 464.830177 
L 21.38585 499.803615 
Q 21.38585 505.203615 26.78585 505.203615 
z
" style="fill: #ffffff; opacity: 0.9; stroke: #800080; stroke-width: 1.5; stroke-linejoin: miter"/>
    </g>
    <text style="font-size: 18px; font-family: 'SimHei', 'DejaVu Sans', sans-serif" transform="translate(26.78585 479.52549)">X</text>
    <text style="font-size: 18px; font-family: 'SimHei', 'DejaVu Sans', sans-serif" transform="translate(35.78585 497.553615)">(0.028 MeV)</text>
   </g>
   <g id="text_22">
    <g id="patch_8">
     <path d="M 132.195544 503.708766 
L 222.195544 503.708766 
Q 227.595544 503.708766 227.595544 498.308766 
L 227.595544 463.616578 
Q 227.595544 458.216578 222.195544 458.216578 
L 132.195544 458.216578 
Q 126.795544 458.216578 126.795544 463.616578 
L 126.795544 498.308766 
Q 126.795544 503.708766 132.195544 503.708766 
z
" style="fill: #ffffff; opacity: 0.9; stroke: #ffa500; stroke-width: 1.5; stroke-linejoin: miter"/>
    </g>
    <text style="font-size: 18px; font-family: 'SimHei', 'DejaVu Sans', sans-serif" transform="translate(141.195544 478.030641)"></text>
    <text style="font-size: 18px; font-family: 'SimHei', 'DejaVu Sans', sans-serif" transform="translate(132.195544 496.058766)">(0.15 MeV)</text>
   </g>
   <g id="text_23">
    <g id="patch_9">
     <path d="M 254.860512 494.704908 
L 362.860512 494.704908 
Q 368.260512 494.704908 368.260512 489.304908 
L 368.260512 454.683033 
Q 368.260512 449.283033 362.860512 449.283033 
L 254.860512 449.283033 
Q 249.460512 449.283033 249.460512 454.683033 
L 249.460512 489.304908 
Q 249.460512 494.704908 254.860512 494.704908 
z
" style="fill: #ffffff; opacity: 0.9; stroke: #ff0000; stroke-width: 1.5; stroke-linejoin: miter"/>
    </g>
    <text style="font-size: 18px; font-family: 'SimHei', 'DejaVu Sans', sans-serif" transform="translate(254.860512 469.026783)"></text>
    <text style="font-size: 18px; font-family: 'SimHei', 'DejaVu Sans', sans-serif" transform="translate(259.360512 487.054908)">(0.511 MeV)</text>
   </g>
   <g id="text_24">
    <g id="patch_10">
     <path d="M 471.028975 535.656817 
L 579.028975 535.656817 
Q 584.428975 535.656817 584.428975 530.256817 
L 584.428975 495.494317 
Q 584.428975 490.094317 579.028975 490.094317 
L 471.028975 490.094317 
Q 465.628975 490.094317 465.628975 495.494317 
L 465.628975 530.256817 
Q 465.628975 535.656817 471.028975 535.656817 
z
" style="fill: #ffffff; opacity: 0.9; stroke: #008000; stroke-width: 1.5; stroke-linejoin: miter"/>
    </g>
    <text style="font-size: 18px; font-family: 'SimHei', 'DejaVu Sans', sans-serif" transform="translate(471.028975 509.978692)"></text>
    <text style="font-size: 18px; font-family: 'SimHei', 'DejaVu Sans', sans-serif" transform="translate(475.528975 528.006817)">(0.978 MeV)</text>
   </g>
   <g id="text_25">
    <g id="patch_11">
     <path d="M 707.564487 532.31948 
L 815.564487 532.31948 
Q 820.964487 532.31948 820.964487 526.91948 
L 820.964487 492.227293 
Q 820.964487 486.827293 815.564487 486.827293 
L 707.564487 486.827293 
Q 702.164487 486.827293 702.164487 492.227293 
L 702.164487 526.91948 
Q 702.164487 532.31948 707.564487 532.31948 
z
" style="fill: #ffffff; opacity: 0.9; stroke: #00ffff; stroke-width: 1.5; stroke-linejoin: miter"/>
    </g>
    <text style="font-size: 18px; font-family: 'SimHei', 'DejaVu Sans', sans-serif" transform="translate(707.564487 506.641355)"></text>
    <text style="font-size: 18px; font-family: 'SimHei', 'DejaVu Sans', sans-serif" transform="translate(712.064487 524.66948)">(1.489 MeV)</text>
   </g>
   <g id="text_26">
    <g id="patch_12">
     <path d="M 843.729456 491.263279 
L 942.729456 491.263279 
Q 948.129456 491.263279 948.129456 485.863279 
L 948.129456 450.960154 
Q 948.129456 445.560154 942.729456 445.560154 
L 843.729456 445.560154 
Q 838.329456 445.560154 838.329456 450.960154 
L 838.329456 485.863279 
Q 838.329456 491.263279 843.729456 491.263279 
z
" style="fill: #ffffff; opacity: 0.9; stroke: #a52a2a; stroke-width: 1.5; stroke-linejoin: miter"/>
    </g>
    <text style="font-size: 18px; font-family: 'SimHei', 'DejaVu Sans', sans-serif" transform="translate(848.229456 465.585154)"></text>
    <text style="font-size: 18px; font-family: 'SimHei', 'DejaVu Sans', sans-serif" transform="translate(843.729456 483.613279)">(1.742 MeV)</text>
   </g>
   <g id="text_27">
    <g id="patch_13">
     <path d="M 957.6 287.442357 
L 1038.6 287.442357 
Q 1044 287.442357 1044 282.042357 
L 1044 247.420482 
Q 1044 242.020482 1038.6 242.020482 
L 957.6 242.020482 
Q 952.2 242.020482 952.2 247.420482 
L 952.2 282.042357 
Q 952.2 287.442357 957.6 287.442357 
z
" style="fill: #ffffff; opacity: 0.9; stroke: #0000ff; stroke-width: 1.5; stroke-linejoin: miter"/>
    </g>
    <text style="font-size: 18px; font-family: 'SimHei', 'DejaVu Sans', sans-serif" transform="translate(971.1 261.764232)"></text>
    <text style="font-size: 18px; font-family: 'SimHei', 'DejaVu Sans', sans-serif" transform="translate(957.6 279.792357)">(2.0 MeV)</text>
   </g>
   <g id="text_28">
    <text style="font-size: 22px; font-family: 'SimHei', 'DejaVu Sans', sans-serif; text-anchor: middle" x="581.50125" y="25.160938" transform="rotate(-0 581.50125 25.160938)">2 MeV   NaI(Tl) + PMT </text>
   </g>
  </g>
 </g>
 <defs>
  <clipPath id="p686137a742">
   <rect x="72.325" y="45.160938" width="1018.3525" height="586.4675"/>
  </clipPath>
 </defs>
</svg>
